<svg width="49" height="36" viewBox="0 0 49 36" fill="none" xmlns="http://www.w3.org/2000/svg">
<path d="M14.1078 0.728283C13.5007 0.776468 11.8914 0.930656 10.5422 1.06557C8.6341 1.26795 8.02698 1.35468 7.84388 1.4896L7.60296 1.66306L7.58369 4.64085L7.55478 7.61864L12.8358 13.7477C15.7365 17.1109 18.2902 20.0791 18.5022 20.32C18.7624 20.6188 18.9937 21.0235 19.1672 21.515C19.3117 21.9294 19.7165 22.9991 20.0538 23.9049C20.5453 25.177 20.6802 25.6492 20.6802 26.0347C20.6705 27.3549 19.3406 28.415 18.0782 28.097C17.606 27.9813 13.52 25.7359 13.0285 25.3215C12.7876 25.1192 8.83648 20.5706 7.86315 19.3756L7.55478 18.9901V24.5506C7.55478 29.822 7.56441 30.1111 7.73788 30.3231C7.94989 30.5833 7.85352 30.5833 11.0819 30.4098C16.093 30.14 21.5764 30.6604 25.1131 31.73L25.9515 31.9806L26.8478 31.6819C28.7848 31.0458 31.3674 30.6218 34.6343 30.4002C36.2726 30.2942 41.9873 30.3327 43.3653 30.4676C43.8954 30.5254 43.9725 30.5062 44.2326 30.2845L44.5121 30.0436L44.541 15.9931C44.5603 0.699373 44.5989 1.63415 44.0495 1.40286C43.799 1.28722 39.4335 0.872835 36.9472 0.718647C33.1117 0.477724 29.6424 0.805378 26.8285 1.65342L25.9997 1.90398L25.2384 1.65342C24.4096 1.37395 22.6172 0.998116 21.3837 0.824652C20.3814 0.680099 15.5341 0.622278 14.1078 0.728283ZM23.2147 6.46221C23.3496 6.58749 23.4556 6.74168 23.4556 6.7995C23.4556 6.99224 23.1761 7.45481 23.0219 7.51263C22.9352 7.54154 20.3043 7.57045 17.182 7.57045H11.4962L11.265 7.32953C11.13 7.20425 11.024 7.00188 11.024 6.89587C11.024 6.78023 11.13 6.58749 11.265 6.46221L11.4962 6.22129H17.2398H22.9834L23.2147 6.46221ZM40.9658 6.4333L41.1874 6.63568V9.56528C41.1874 12.36 41.1778 12.4949 40.9947 12.678C40.8019 12.8707 40.6766 12.8707 35.0198 12.8707C29.363 12.8707 29.2377 12.8707 29.045 12.678C28.8619 12.4949 28.8522 12.36 28.8522 9.54601C28.8522 6.73204 28.8619 6.59713 29.045 6.41403C29.2377 6.22129 29.363 6.22129 34.9909 6.22129H40.7441L40.9658 6.4333ZM23.1472 11.6854C23.4556 11.9456 23.5038 12.3021 23.2628 12.6105L23.0605 12.8707H18.4444H13.8284L13.6356 12.6202C13.3754 12.2829 13.3851 12.0516 13.6742 11.7625L13.9055 11.5216H18.4251C22.5979 11.5216 22.9641 11.5312 23.1472 11.6854ZM40.9368 17.0242C41.2645 17.2844 41.2645 17.6795 40.9368 17.9879L40.6863 18.2192L35.28 18.2481C32.3022 18.2674 29.7195 18.2481 29.5461 18.2192C28.8811 18.0939 28.6499 17.4964 29.0931 17.0628L29.3244 16.8218H35.0005C40.5996 16.8218 40.6863 16.8218 40.9368 17.0242ZM40.9465 22.363C41.2356 22.6425 41.2549 22.9798 41.0043 23.2882L40.8212 23.5194H35.0198H29.2184L29.0353 23.2882C28.7848 22.9798 28.804 22.6425 29.0931 22.363L29.3244 22.1221H35.0198H40.7152L40.9465 22.363Z" fill="#CACACA"/>
<path d="M30.2014 9.54599V11.5215H35.0198H39.8382V9.54599V7.57043H35.0198H30.2014V9.54599Z" fill="#CACACA"/>
<path d="M46.0829 17.3326L46.054 30.2845L45.7649 30.7567C45.5722 31.0651 45.3023 31.3349 44.9651 31.5277L44.4543 31.836L40.0984 31.7879C35.6848 31.73 33.9309 31.7975 31.5505 32.0962C30.1436 32.2793 28.2837 32.6648 27.2814 32.9732C26.3659 33.2719 25.9034 33.2527 24.7084 32.8768C22.6268 32.2215 19.5623 31.8071 15.7847 31.6626C13.5007 31.5758 9.96399 31.6529 8.7883 31.8168C7.85352 31.9517 6.91875 31.4313 6.50436 30.5543C6.30199 30.1303 6.30199 30.0436 6.30199 23.7411V17.3519L5.26121 16.1665L4.23006 14.9812L4.20115 25.1288C4.19152 30.7085 4.20115 35.3728 4.23006 35.498C4.35534 36.0281 3.17965 35.9992 26.2503 35.9992C49.6967 35.9992 47.991 36.0474 48.2127 35.4113C48.3283 35.074 48.3765 5.74907 48.2609 5.17086C48.2223 5.00704 48.097 4.76612 47.9718 4.6312C47.7694 4.40955 47.6826 4.39028 46.931 4.39028H46.1022L46.0829 17.3326Z" fill="#CACACA"/>
<path d="M1.89796 6.13455C0.41388 7.40662 0.327148 7.50299 0.327148 7.92701C0.327148 8.21611 0.481338 8.43776 1.50284 9.63273C2.14851 10.3748 2.70745 11.0012 2.746 11.0204C2.86164 11.0686 6.20563 8.13902 6.20563 8.0041C6.20563 7.93664 6.10926 7.81137 6.00326 7.70536C5.88761 7.60899 5.40577 7.06933 4.93357 6.51039C3.85424 5.24796 3.74823 5.16123 3.35312 5.16123C3.08329 5.16123 2.84237 5.31542 1.89796 6.13455Z" fill="#CACACA"/>
<path d="M5.35762 10.6735C4.40357 11.483 3.62298 12.1769 3.63262 12.2154C3.64226 12.254 4.65413 13.4489 5.86837 14.8656C7.09225 16.2822 9.2509 18.807 10.6675 20.4838C12.0938 22.151 13.308 23.558 13.3755 23.6062C13.4718 23.6736 14.0115 23.2689 15.2547 22.2088C16.2087 21.3897 16.9989 20.6958 16.9989 20.6573C16.9989 20.5224 7.29462 9.20872 7.17898 9.20872C7.14043 9.20872 6.3213 9.87366 5.35762 10.6735Z" fill="#CACACA"/>
<path d="M16.1894 23.2978C15.3125 24.0495 14.6186 24.6951 14.6572 24.7337C14.7054 24.7819 15.5341 25.2733 16.5171 25.8323C18.0108 26.69 18.3481 26.8442 18.589 26.8056C18.9359 26.7381 19.3118 26.343 19.3118 26.0347C19.3118 25.8612 17.9241 22.0546 17.8181 21.9486C17.8084 21.939 17.076 22.5365 16.1894 23.2978Z" fill="#CACACA"/>
</svg>
