<svg width="49" height="45" viewBox="0 0 49 45" fill="none" xmlns="http://www.w3.org/2000/svg">
<path d="M5.30665 0.391186C3.64669 0.87117 2.15673 2.07114 1.38675 3.5511C0.606775 5.06106 0.656774 4.13109 0.656774 17.8007C0.656774 31.4704 0.606775 30.5404 1.38675 32.0503C1.94674 33.1303 2.92671 34.1103 4.01668 34.6803C5.51664 35.4502 3.94668 35.4002 24.6561 35.4002C45.3656 35.4002 43.7956 35.4502 45.2956 34.6803C46.3855 34.1103 47.3655 33.1303 47.9255 32.0503C48.7055 30.5404 48.6555 31.4704 48.6555 17.8007C48.6555 4.13109 48.7055 5.06106 47.9255 3.5511C47.3655 2.47113 46.3855 1.49115 45.3056 0.931171C43.7756 0.14119 45.4856 0.201191 24.5961 0.211189C7.1866 0.211189 5.86663 0.23119 5.30665 0.391186ZM18.2963 8.41097C21.7662 8.97095 24.7361 11.6409 25.8261 15.1708C26.0761 15.9808 26.0961 16.1808 26.0961 17.8007C26.0961 19.4207 26.0761 19.6207 25.8261 20.4306C25.0461 22.9506 23.4062 24.9705 21.1262 26.2005C19.6863 26.9805 18.2963 27.3105 16.5563 27.3105C12.4065 27.3005 8.69656 24.4905 7.50659 20.4506C7.0066 18.7707 7.0466 16.4408 7.61659 14.7808C9.13655 10.3109 13.5764 7.66099 18.2963 8.41097ZM42.2557 11.4009V13.0008H35.8558H29.456V11.4009V9.80093H35.8558H42.2557V11.4009ZM42.2557 17.8007V19.4007H35.8558H29.456V17.8007V16.2008H35.8558H42.2557V17.8007ZM42.2557 24.2005V25.8005H35.8558H29.456V24.2005V22.6006H35.8558H42.2557V24.2005Z" fill="#CACACA"/>
<path d="M14.9064 11.5909C12.7465 12.2109 10.9665 14.0208 10.4165 16.1608C10.2065 16.9707 10.2065 18.6307 10.4165 19.4407C10.9865 21.6406 12.8964 23.5406 15.0664 24.0506C15.8864 24.2406 17.4263 24.2406 18.2463 24.0506C19.9063 23.6606 21.5362 22.3806 22.3262 20.8506C22.8762 19.7807 23.0562 19.0407 23.0562 17.8007C23.0562 16.5608 22.8762 15.8208 22.3262 14.7508C21.5462 13.2408 19.9663 11.9909 18.2963 11.5609C17.4563 11.3409 15.7064 11.3609 14.9064 11.5909ZM20.9462 17.8007C20.9462 17.8307 19.4463 18.8507 17.6063 20.0807L14.2564 22.3006V17.8007V13.3008L17.6063 15.5208C19.4463 16.7508 20.9462 17.7707 20.9462 17.8007Z" fill="#CACACA"/>
<path d="M19.8562 40.2001V41.8001H16.6563H13.4564V43.4V45H24.6561H35.8558V43.4V41.8001H32.6559H29.456V40.2001V38.6002H24.6561H19.8562V40.2001Z" fill="#CACACA"/>
</svg>
