<svg width="48" height="48" viewBox="0 0 48 48" fill="none" xmlns="http://www.w3.org/2000/svg">
<path d="M6.89564 0.208607C6.61117 0.360323 6.55428 0.682718 6.55428 1.99127V3.60325H24.2861H42.0179V12.5166V21.4299H43.1747C45.2418 21.4299 45.0522 22.5298 45.0522 10.8098C45.0522 1.78266 45.0143 0.568932 44.7488 0.303429C44.4833 0.0379257 42.5109 -3.8147e-06 25.8412 -3.8147e-06C13.5522 0.018961 7.10425 0.0758553 6.89564 0.208607Z" fill="#CACACA"/>
<path d="M3.84232 5.0635C3.76647 5.1204 3.70957 6.20137 3.70957 7.43407V9.67188H4.24058C4.96123 9.65291 6.34564 8.98915 7.08525 8.28747C7.67315 7.71853 8.45069 6.03069 8.45069 5.31004C8.45069 4.94972 8.31794 4.93075 6.21288 4.93075C4.98019 4.93075 3.89922 4.98765 3.84232 5.0635Z" fill="#CACACA"/>
<path d="M9.60753 5.879C9.32306 7.24444 8.96274 7.98405 8.24208 8.81849C7.33179 9.86154 6.0991 10.5822 4.80951 10.8287L3.70957 11.0563V14.7923V18.5473L4.52504 18.6611C5.79567 18.8507 7.14214 19.5903 8.09037 20.6144C8.92481 21.5057 9.36099 22.454 9.68339 24.028L9.81614 24.6538H22.2758H34.7544L34.8493 23.8194C35.0579 22.0936 36.4044 20.1782 37.9784 19.3817C38.3767 19.1731 39.1921 18.9076 39.799 18.7748L40.88 18.5662V14.7923V11.0373L40.0645 10.9235C37.4853 10.5253 35.3234 8.38231 34.9062 5.72728L34.7734 4.93077H22.2948H9.81614L9.60753 5.879ZM24.305 8.23059C25.4998 8.78056 26.9031 10.3546 27.4531 11.758C27.7945 12.5924 27.8893 13.1803 27.8893 14.7923C27.8893 16.575 27.8324 16.8974 27.3583 17.9025C26.3342 20.1213 24.7602 21.4299 22.8258 21.7143C19.1277 22.2643 15.771 17.7697 16.5865 13.37C17.364 9.14089 21.0242 6.69447 24.305 8.23059Z" fill="#CACACA"/>
<path d="M20.569 9.48224C17.6675 11.0184 16.852 15.6457 18.9381 18.699C20.5121 20.9747 23.5844 21.1264 25.3102 19.0214C27.1307 16.8215 27.1307 12.7631 25.3291 10.5822C24.1912 9.19777 22.0483 8.70469 20.569 9.48224ZM22.4844 11.0753C22.4844 11.208 22.8637 11.4356 23.3378 11.5683C23.812 11.7011 24.2481 11.8907 24.305 11.9855C24.4567 12.2131 24.0016 12.7252 23.793 12.5924C23.6792 12.5355 23.3568 12.4217 23.0534 12.3269L22.4844 12.1562V13.1803C22.4844 14.1475 22.5034 14.2044 23.0913 14.394C24.0585 14.7354 24.5705 15.3233 24.5705 16.1198C24.5705 17.0301 24.1344 17.5801 23.243 17.8266C22.7879 17.9404 22.4844 18.149 22.4844 18.3007C22.4844 18.4524 22.4086 18.5852 22.2948 18.5852C22.2 18.5852 22.1052 18.4145 22.1052 18.2059C22.1052 17.9594 21.9724 17.8266 21.7259 17.8266C21.2707 17.8266 19.8294 17.1249 19.8294 16.9163C19.8294 16.8405 19.9242 16.6698 20.038 16.556C20.2087 16.3853 20.4363 16.4232 20.9862 16.7077C21.3845 16.8974 21.8017 17.068 21.9155 17.068C22.0293 17.068 22.1052 16.6129 22.1052 16.025C22.1052 15.3992 22.0293 14.9819 21.8965 14.9819C21.7828 14.9819 21.4035 14.8492 21.0621 14.6975C20.4363 14.394 20.0191 13.7492 20.0191 13.0855C20.0191 12.5545 20.9104 11.6063 21.5362 11.4735C21.8586 11.3977 22.1052 11.227 22.1052 11.0753C22.1052 10.9235 22.2 10.8098 22.2948 10.8098C22.4086 10.8098 22.4844 10.9235 22.4844 11.0753Z" fill="#CACACA"/>
<path d="M21.5362 12.3838C20.8535 12.7252 20.7777 13.5786 21.4225 13.882C22.0672 14.1665 22.1431 14.0527 22.0672 13.0096C22.0104 12.1562 22.0104 12.1562 21.5362 12.3838Z" fill="#CACACA"/>
<path d="M22.4845 16.2146C22.4845 16.7836 22.5224 17.2577 22.5793 17.2577C22.6172 17.2577 22.8638 17.1629 23.1293 17.0491C23.9258 16.6887 23.9068 15.7405 23.1293 15.3802C22.8638 15.2664 22.6172 15.1716 22.5793 15.1716C22.5224 15.1716 22.4845 15.6457 22.4845 16.2146Z" fill="#CACACA"/>
<path d="M35.9493 5.27211C35.9493 5.95484 36.5372 7.32028 37.1251 8.04093C37.7699 8.83744 39.3439 9.67188 40.1784 9.67188H40.7094L40.6525 7.33924L40.5956 5.02558L38.2819 4.96868C36.12 4.93075 35.9493 4.94972 35.9493 5.27211Z" fill="#CACACA"/>
<path d="M3.70957 22.0557C3.70957 23.478 3.78543 24.2745 3.93715 24.4263C4.08886 24.578 4.88537 24.6538 6.30771 24.6538C8.37484 24.6538 8.45069 24.6349 8.45069 24.2556C8.45069 22.1885 6.19392 19.9127 4.14576 19.9127C3.70957 19.9127 3.70957 19.9506 3.70957 22.0557Z" fill="#CACACA"/>
<path d="M39.0973 20.2161C37.4474 20.804 36.1389 22.4919 36.1389 23.9901V24.6538H38.2818C39.7042 24.6538 40.5007 24.578 40.6524 24.4263C40.8041 24.2745 40.88 23.478 40.88 22.0557V19.9127L40.3679 19.9317C40.0645 19.9317 39.4956 20.0644 39.0973 20.2161Z" fill="#CACACA"/>
<path d="M0.921828 27.252C0.580467 27.3847 0.561503 45.8941 0.902864 46.2354C1.2063 46.5388 9.43688 46.5578 9.98685 46.2733C10.3282 46.0837 10.3472 45.7803 10.3472 36.829C10.3472 29.888 10.2903 27.5175 10.1196 27.3468C9.94892 27.1761 8.6783 27.1192 5.5302 27.1382C3.12171 27.1382 1.03562 27.1951 0.921828 27.252Z" fill="#CACACA"/>
<path d="M12.8694 29.0536L11.8643 29.2432V37.0187V44.8131L13.4384 44.7183L14.9935 44.6234L19.7346 46.3113C23.8878 47.7905 24.6274 47.9991 25.7463 47.9991C27.4721 48.0181 27.9272 47.7715 34.7165 43.3718C37.8457 41.3236 41.7903 38.7634 43.4781 37.6635C45.5453 36.317 46.6831 35.4636 46.9486 35.0464C47.3658 34.3447 47.4607 32.6758 47.1193 31.9931C46.3987 30.6087 45.0522 29.9639 43.7816 30.4001C43.3833 30.5328 40.9558 32.031 38.3956 33.6999C32.8011 37.379 32.6115 37.4738 28.1738 39.1806C25.5757 40.1857 24.5516 40.4892 24.2481 40.3754C23.6982 40.1668 22.3138 38.6686 22.2948 38.2703C22.2948 37.6445 22.9586 37.5497 27.0928 37.5497C30.9995 37.5497 31.1702 37.5307 31.796 37.1135C33.5407 35.9567 33.5407 33.0741 31.796 31.9172C31.1702 31.5 31.0185 31.481 26.7135 31.481H22.2948L21.4793 30.7414C19.9432 29.3381 18.3502 28.826 15.6572 28.845C14.6711 28.8639 13.4004 28.9588 12.8694 29.0536Z" fill="#CACACA"/>
</svg>
