<svg width="43" height="48" viewBox="0 0 43 48" fill="none" xmlns="http://www.w3.org/2000/svg">
<path d="M10.0529 1.4862C7.00346 2.30646 4.34003 3.02057 4.13738 3.07847C3.53907 3.25217 3.31712 4.06278 3.76102 4.46809C3.92507 4.61284 15.428 7.71052 15.8044 7.71052C15.9684 7.71052 25.2229 5.298 25.9659 5.05674C26.1686 4.99884 26.1686 4.99884 26.1686 7.70087V10.4126L25.8308 10.5766L25.4931 10.7407V12.9023V15.0639L25.7633 14.8902C25.908 14.8034 26.2458 14.5717 26.5256 14.3884L27.0178 14.0603L27.7512 14.5524C28.1468 14.8227 28.5039 15.0446 28.5328 15.0446C28.5618 15.0446 28.5811 14.0699 28.5811 12.8926V10.731L28.1951 10.5573L27.8091 10.3836V7.44997C27.8091 4.92164 27.8284 4.48739 27.9635 4.28473C28.1661 3.97593 28.0696 3.41623 27.7801 3.23287C27.5582 3.08812 15.9974 -0.0192127 15.7465 8.7738e-05C15.6693 8.7738e-05 13.1023 0.675595 10.0529 1.4862Z" fill="#CACACA"/>
<path d="M7.54382 9.28349V11.4258L10.8538 12.0531C14.1252 12.6803 14.1638 12.6803 15.8429 12.6803C17.5124 12.6803 17.5606 12.6707 20.7934 12.0531L24.0455 11.4355V9.28349C24.0455 7.48857 24.0262 7.13152 23.9104 7.13152C23.8332 7.13152 22.0576 7.58507 19.9635 8.14478C17.8694 8.70448 15.9973 9.15804 15.8043 9.15804C15.6113 9.15804 13.7488 8.70448 11.6548 8.14478C9.5607 7.58507 7.77543 7.13152 7.69822 7.13152C7.56312 7.13152 7.54382 7.39207 7.54382 9.28349Z" fill="#CACACA"/>
<path d="M7.6885 13.6164C8.14206 18.1423 11.8091 21.3461 16.2578 21.0952C18.4291 20.9698 19.9731 20.275 21.5364 18.7116C22.5593 17.6887 23.0997 16.8395 23.505 15.614C23.7463 14.9095 24.0454 13.076 23.9393 12.9795C23.9103 12.9505 22.5014 13.1918 20.803 13.5102C16.0069 14.4077 15.5919 14.4077 10.7476 13.5006C9.06847 13.1821 7.6885 12.9216 7.65955 12.9216C7.64025 12.9216 7.6499 13.24 7.6885 13.6164Z" fill="#CACACA"/>
<path d="M13.9611 22.1085C13.4882 22.1567 13.054 22.2339 13.0057 22.2822C12.8803 22.4076 15.7271 24.6175 15.8911 24.521C15.949 24.4824 16.6149 23.9806 17.3676 23.3919C18.1975 22.7454 18.68 22.3111 18.6124 22.2725C18.4291 22.1664 16.4508 21.9927 15.6113 22.0023C15.177 22.012 14.4436 22.0602 13.9611 22.1085Z" fill="#CACACA"/>
<path d="M10.4677 22.8901L10.1493 23.0059L11.481 25.3895C12.2048 26.7019 12.832 27.7827 12.8706 27.7827C12.9189 27.7827 13.7681 26.8177 14.6559 25.7466C14.762 25.6115 14.5497 25.4185 12.9575 24.1833C11.9539 23.4016 11.0468 22.7647 10.9503 22.7743C10.8537 22.7743 10.6318 22.8322 10.4677 22.8901Z" fill="#CACACA"/>
<path d="M18.6704 24.1447C17.7054 24.8974 16.9141 25.5536 16.9044 25.6115C16.9044 25.7273 18.6318 27.7827 18.7186 27.7827C18.7765 27.7827 21.3049 23.3437 21.4207 23.0542C21.4496 22.9866 20.7741 22.7647 20.5618 22.7743C20.4846 22.7743 19.6354 23.3919 18.6704 24.1447Z" fill="#CACACA"/>
<path d="M32.0069 23.3147C31.8525 23.4016 31.37 23.7201 30.9454 24.0289C30.5208 24.3377 30.0479 24.6368 29.8838 24.6947C29.7294 24.7526 29.0925 24.8491 28.4749 24.8877C27.1915 24.9939 26.9213 25.0711 26.4774 25.4957C26.0335 25.9106 25.9466 26.1133 25.6378 27.3967L25.3676 28.5065L24.4315 29.4715C23.3218 30.6102 23.1481 30.9094 23.1481 31.6621C23.1577 32.1253 23.2349 32.3858 23.6499 33.2447C23.9297 33.8044 24.1806 34.4027 24.2096 34.5571C24.2385 34.7115 24.2096 35.3484 24.142 35.966C23.9394 37.8864 24.2192 38.3593 25.9659 39.112C27.1336 39.6234 27.4424 39.884 28.1179 40.9551C28.6293 41.7561 29.1118 42.2097 29.6136 42.3448C30.154 42.4992 30.3664 42.4799 31.4761 42.1614C32.7403 41.8044 33.107 41.8044 34.3615 42.1614C35.4616 42.4799 35.7222 42.5088 36.2143 42.3351C36.7837 42.1421 37.0539 41.8912 37.7583 40.849C38.5014 39.7585 38.6847 39.6138 39.9682 39.0734C40.8946 38.6777 41.2517 38.4075 41.5026 37.8864C41.7438 37.3943 41.7535 37.182 41.657 35.5993L41.5894 34.3931L42.0912 33.3798C42.6509 32.2507 42.7571 31.691 42.5737 30.9962C42.4676 30.6102 42.2939 30.3786 41.5508 29.6645C41.0683 29.182 40.5955 28.6513 40.5086 28.4872C40.4218 28.3135 40.2577 27.7924 40.1516 27.3292C39.6787 25.3509 39.312 25.0325 37.3241 24.8877C35.9827 24.8009 35.838 24.743 34.7764 23.9517C34.3808 23.6622 33.9176 23.363 33.7439 23.2858C33.3 23.1024 32.3736 23.1217 32.0069 23.3147ZM34.2746 27.252C35.6257 27.609 36.8126 28.4486 37.5846 29.5873C39.1286 31.8647 38.8681 34.7694 36.9381 36.7091C35.7608 37.8961 34.5062 38.4365 32.9236 38.4365C28.6486 38.4268 25.9177 33.9492 27.8766 30.1567C28.5714 28.8153 29.9224 27.7248 31.4279 27.2906C32.1516 27.0783 33.5605 27.059 34.2746 27.252Z" fill="#CACACA"/>
<path d="M32.3735 28.8925C32.2577 28.9697 32.1419 29.1627 32.1033 29.3171C32.0647 29.5101 31.9489 29.6356 31.7656 29.7128C31.4278 29.8479 30.8295 30.4848 30.704 30.8322C30.4821 31.4112 30.6654 32.3762 31.0707 32.8297C31.3313 33.1192 32.0551 33.4474 32.7113 33.5825C33.7728 33.7851 34.0237 34.2773 33.1648 34.4799C32.6727 34.5957 32.1998 34.3641 32.0165 33.9202C31.8621 33.5439 31.6112 33.3798 31.2155 33.3798C30.5496 33.3798 30.2601 34.0071 30.5786 34.7405C30.7909 35.2133 31.4374 35.8502 31.8042 35.9467C31.9682 35.9853 32.0647 36.0915 32.1033 36.2845C32.2384 36.8731 33.1166 37.0758 33.4929 36.6029C33.6087 36.4582 33.6956 36.2845 33.6956 36.2169C33.6956 36.1397 33.85 36.0239 34.043 35.9371C34.9308 35.5704 35.3361 35.001 35.3361 34.1229C35.3361 33.042 34.5834 32.2797 33.242 32.0191C32.2481 31.8165 31.9393 31.4015 32.6051 31.1506C32.9429 31.0252 33.271 31.112 33.4833 31.3726C33.9175 31.913 34.0816 32.0288 34.4193 32.0288C34.8343 32.0288 35.2396 31.6717 35.2396 31.305C35.2396 30.7453 34.4869 29.7996 33.9175 29.6549C33.7921 29.6163 33.6956 29.5198 33.6956 29.4233C33.6956 29.3364 33.6087 29.1434 33.4929 28.9987C33.2613 28.7091 32.7209 28.6512 32.3735 28.8925Z" fill="#CACACA"/>
<path d="M7.77541 24.1543C5.02513 25.7466 2.83455 28.0819 1.43529 30.919C0.711531 32.3762 0.0167236 34.5861 0.0167236 35.4063C0.0167236 35.773 0.229026 36.0915 0.56678 36.2652C0.721181 36.3424 3.84782 36.3713 11.7223 36.3713H22.6752L22.7427 35.5414L22.8103 34.7212L22.3278 33.7272C21.7488 32.5499 21.5944 31.8744 21.7391 31.0831C21.9032 30.2146 22.3374 29.5005 23.1866 28.7381C24.0165 27.9854 24.0455 27.9371 24.3832 26.5861C24.5087 26.065 24.7113 25.486 24.8175 25.3027C24.9236 25.1193 24.9912 24.9263 24.9526 24.8781C24.885 24.7526 22.9743 23.6332 22.8392 23.6332C22.7813 23.6332 21.99 24.9456 21.0926 26.5475C20.1951 28.1591 19.3845 29.5487 19.288 29.6452C19.1722 29.761 19.0081 29.8093 18.8055 29.79C18.5449 29.761 18.3423 29.5873 17.551 28.6513C17.0299 28.0433 16.4219 27.3292 16.2 27.0686L15.7946 26.5958L14.8296 27.7441C13.3339 29.5391 13.054 29.8093 12.7549 29.8093C12.5715 29.8093 12.4075 29.7128 12.2531 29.5391C12.1373 29.3943 11.317 28.0047 10.4581 26.451C9.58963 24.8974 8.82727 23.6332 8.76937 23.6332C8.70182 23.6428 8.25791 23.8744 7.77541 24.1543Z" fill="#CACACA"/>
<path d="M39.7655 40.7139C39.5243 40.8393 39.2347 41.1771 38.8101 41.8333C37.9706 43.0975 37.2082 43.6475 36.0406 43.8502C35.809 43.8888 35.6256 43.937 35.6256 43.966C35.6256 43.9853 35.9151 44.6801 36.2625 45.51C36.774 46.697 36.9284 46.9768 37.0249 46.8707C37.0828 46.8031 37.4977 46.1566 37.9416 45.4424C38.3855 44.7283 38.7522 44.13 38.7619 44.1204C38.7715 44.1011 39.505 44.2458 40.4024 44.4292C41.2902 44.6222 42.0429 44.7476 42.0719 44.7283C42.1491 44.6415 40.3349 40.5209 40.2191 40.5209C40.1612 40.5305 39.9585 40.6077 39.7655 40.7139Z" fill="#CACACA"/>
<path d="M25.4737 41.7464C24.0358 44.7766 23.6884 45.5872 23.8138 45.6161C23.8814 45.6354 24.5569 45.5389 25.3289 45.4038C26.0913 45.2687 26.8054 45.1529 26.9019 45.1529C27.0466 45.1529 27.2975 45.5003 27.9055 46.5522C28.3494 47.3242 28.7354 47.9804 28.774 47.9997C28.8319 48.0383 30.704 44.13 30.704 43.966C30.704 43.9274 30.5207 43.8984 30.2987 43.8984C28.9477 43.8888 27.8765 43.2229 26.9887 41.814C26.6027 41.206 26.1878 40.7139 26.043 40.7139C26.0044 40.7139 25.7439 41.1771 25.4737 41.7464Z" fill="#CACACA"/>
</svg>
