<svg width="47" height="48" viewBox="0 0 47 48" fill="none" xmlns="http://www.w3.org/2000/svg">
<path d="M46.0167 34.5171C46.0157 37.6636 44.9401 40.7155 42.9681 43.1674C40.9961 45.6193 38.246 47.3242 35.1729 48L33.7049 43.5962C35.0491 43.3748 36.3275 42.858 37.4479 42.0829C38.5683 41.3079 39.5028 40.2939 40.1841 39.1142H34.5125C33.2921 39.1142 32.1216 38.6294 31.2586 37.7664C30.3957 36.9034 29.9108 35.733 29.9108 34.5125V25.3092C29.9108 24.0887 30.3957 22.9183 31.2586 22.0553C32.1216 21.1923 33.2921 20.7075 34.5125 20.7075H41.2724C40.7109 16.2598 38.5457 12.1697 35.183 9.20489C31.8204 6.24004 27.4914 4.60414 23.0083 4.60414C18.5253 4.60414 14.1963 6.24004 10.8336 9.20489C7.47099 12.1697 5.30579 16.2598 4.74432 20.7075H11.5042C12.7246 20.7075 13.8951 21.1923 14.758 22.0553C15.621 22.9183 16.1058 24.0887 16.1058 25.3092V34.5125C16.1058 35.733 15.621 36.9034 14.758 37.7664C13.8951 38.6294 12.7246 39.1142 11.5042 39.1142H4.60167C3.38123 39.1142 2.21078 38.6294 1.3478 37.7664C0.484817 36.9034 0 35.733 0 34.5125V23.0083C0 10.3008 10.3008 0 23.0083 0C35.7158 0 46.0167 10.3008 46.0167 23.0083V34.5171Z" fill="#CACACA"/>
</svg>
