<svg width="48" height="38" viewBox="0 0 48 38" fill="none" xmlns="http://www.w3.org/2000/svg">
<path d="M3.15 0.542869C1.8 1.03573 0.675 2.19287 0.225 3.52144C0.0428571 4.06787 0 4.44287 0 5.6643V7.14287H24H48V5.70715C48 4.58215 47.9571 4.12144 47.7857 3.58573C47.3571 2.19287 46.1036 0.928583 44.7107 0.500011C44.025 0.285726 43.7571 0.285726 23.9036 0.29644H3.80357L3.15 0.542869ZM6.53571 4.03573C6.65357 4.15358 6.75 4.3893 6.75 4.57144C6.75 4.75358 6.65357 4.9893 6.53571 5.10715C6.075 5.56787 5.25 5.22501 5.25 4.57144C5.25 4.1643 5.59286 3.82144 6 3.82144C6.18214 3.82144 6.41786 3.91787 6.53571 4.03573ZM9.96429 4.03573C10.0821 4.15358 10.1786 4.3893 10.1786 4.57144C10.1786 4.75358 10.0821 4.9893 9.96429 5.10715C9.50357 5.56787 8.67857 5.22501 8.67857 4.57144C8.67857 4.1643 9.02143 3.82144 9.42857 3.82144C9.61071 3.82144 9.84643 3.91787 9.96429 4.03573ZM13.3929 4.03573C13.5107 4.15358 13.6071 4.3893 13.6071 4.57144C13.6071 4.75358 13.5107 4.9893 13.3929 5.10715C13.275 5.22501 13.0393 5.32144 12.8571 5.32144C12.675 5.32144 12.4393 5.22501 12.3214 5.10715C12.2036 4.9893 12.1071 4.75358 12.1071 4.57144C12.1071 4.3893 12.2036 4.15358 12.3214 4.03573C12.4393 3.91787 12.675 3.82144 12.8571 3.82144C13.0393 3.82144 13.275 3.91787 13.3929 4.03573Z" fill="#CACACA"/>
<path d="M0 21.5V34.1321L0.246429 34.8179C0.760714 36.2214 1.93929 37.3679 3.28929 37.7857C3.975 38 4.25357 38 24 38C43.7464 38 44.025 38 44.7107 37.7857C46.1036 37.3571 47.3571 36.0929 47.7857 34.7C47.9893 34.0357 48 33.6714 48 21.4357V8.85715H24H0V21.5ZM26.625 12.2321C29.6464 12.9929 32.2821 15.125 33.6536 17.9107C35.7107 22.1107 34.9071 26.975 31.5964 30.275C27.9321 33.95 22.3714 34.4964 18.0429 31.6143C15.7929 30.125 14.2393 27.9286 13.5321 25.25C13.2964 24.3821 13.2536 23.9964 13.2536 22.6786C13.2536 21.3393 13.2964 20.975 13.5429 20.0536C14.6571 15.8 18.1607 12.6607 22.5643 11.9643C23.5929 11.8036 25.4143 11.9214 26.625 12.2321Z" fill="#CACACA"/>
<path d="M22.3607 14.1607C22.0285 14.4286 21.6 14.8464 21.4178 15.1036C21.0428 15.6071 20.5178 16.6679 20.6035 16.7429C20.6357 16.775 21.0321 16.7536 21.4821 16.6893C21.9321 16.625 22.4893 16.5714 22.725 16.5714H23.1428V15.125C23.1428 14.3321 23.1107 13.6786 23.0678 13.6786C23.0143 13.6786 22.7035 13.8929 22.3607 14.1607Z" fill="#CACACA"/>
<path d="M24.8571 15.125V16.5714H25.275C25.5107 16.5714 26.0679 16.625 26.5179 16.6893C26.9679 16.7536 27.3643 16.775 27.3964 16.7429C27.4821 16.6679 26.9571 15.6071 26.5821 15.1036C26.2714 14.675 25.1143 13.6786 24.9429 13.6786C24.8893 13.6786 24.8571 14.3321 24.8571 15.125Z" fill="#CACACA"/>
<path d="M19.4571 14.7179C18.45 15.2429 17.1107 16.5071 16.3714 17.6321C16.0928 18.0714 15.8785 18.4464 15.9 18.4679C15.9214 18.4893 16.4464 18.275 17.0464 17.9857C17.6571 17.6964 18.2893 17.4071 18.4393 17.3429C18.6107 17.2786 18.75 17.1179 18.7928 16.925C18.8357 16.7643 19.0821 16.175 19.35 15.6286C19.6178 15.0714 19.8214 14.6107 19.8 14.5893C19.7785 14.5679 19.6285 14.6321 19.4571 14.7179Z" fill="#CACACA"/>
<path d="M28.1786 14.6214C28.1786 14.6643 28.3393 15.0179 28.5429 15.3929C28.7464 15.7786 29.0143 16.3571 29.1429 16.6893C29.3464 17.2464 29.4 17.3107 29.8714 17.4821C30.15 17.5893 30.75 17.8679 31.2107 18.1036C31.6714 18.3393 32.0679 18.5 32.1 18.4786C32.2072 18.3714 31.0714 16.8071 30.4179 16.1643C29.5607 15.3286 28.1786 14.375 28.1786 14.6214Z" fill="#CACACA"/>
<path d="M21.9643 18.2321C21.8786 18.2536 21.4286 18.3286 20.9679 18.4036C20.5072 18.4786 20.0572 18.5964 19.9822 18.6714C19.9072 18.7464 19.7572 19.3679 19.6607 20.0536C19.5107 21.0393 19.4893 21.6929 19.5322 23.2464C19.5857 24.875 19.7893 26.5357 19.9607 26.7071C20.0464 26.7929 21.5572 27.0607 22.3179 27.1357L23.1429 27.2107V22.6893V18.1786L22.6393 18.1893C22.35 18.2 22.05 18.2214 21.9643 18.2321Z" fill="#CACACA"/>
<path d="M24.8571 22.6786V27.2107L25.6929 27.1357C26.475 27.0607 27.9536 26.8036 28.0393 26.7179C28.0607 26.6964 28.1464 26.3429 28.2429 25.9357C28.5107 24.7571 28.5643 21.5429 28.3393 20.0643C28.2429 19.4 28.125 18.8 28.0714 18.725C27.975 18.5536 26.8929 18.3179 25.7464 18.2214L24.8571 18.1464V22.6786Z" fill="#CACACA"/>
<path d="M17.2179 19.6464C15.3107 20.6643 14.4857 22.0357 14.9464 23.4393C15.2036 24.2 16.1571 25.1536 17.2286 25.7107C17.6679 25.9464 18.0429 26.1071 18.075 26.075C18.0964 26.0429 18.0643 25.55 18 24.9821C17.8714 23.975 17.9143 20.5893 18.0643 19.6464C18.0964 19.4321 18.0857 19.25 18.0429 19.25C17.9893 19.25 17.6143 19.4321 17.2179 19.6464Z" fill="#CACACA"/>
<path d="M29.9357 19.6464C30.0857 20.5893 30.1285 23.975 30 24.9821C29.9357 25.55 29.9035 26.0429 29.925 26.075C30.0643 26.2036 31.6071 25.25 32.2178 24.6607C32.7535 24.125 32.9035 23.9 33.0535 23.3857C33.4178 22.1536 32.9035 21.0286 31.5321 20.0964C31.0714 19.775 30.0857 19.25 29.9464 19.25C29.9035 19.25 29.9035 19.4321 29.9357 19.6464Z" fill="#CACACA"/>
<path d="M15.8571 26.8357C15.8571 27.0607 16.8 28.3571 17.4536 29.0321C18.1607 29.7714 19.7357 30.9071 19.8 30.725C19.8214 30.6714 19.6607 30.3286 19.4679 29.9536C19.2643 29.5786 19.0071 29.0214 18.9107 28.7321C18.675 28.0679 18.6107 28.0036 17.9464 27.7679C17.6571 27.6714 17.0571 27.3929 16.6393 27.1679C16.2107 26.9321 15.8571 26.7821 15.8571 26.8357Z" fill="#CACACA"/>
<path d="M31.5536 27.0714C31.2536 27.2536 30.6857 27.5214 30.2679 27.6821C29.3679 28.025 29.3357 28.0571 29.0893 28.7321C28.9929 29.0214 28.7357 29.5786 28.5322 29.9536C28.3393 30.3286 28.1786 30.6714 28.2 30.725C28.2643 30.9286 29.8929 29.7286 30.6536 28.9143C31.3822 28.1321 32.2393 26.9107 32.1322 26.8036C32.1 26.7821 31.8429 26.9 31.5536 27.0714Z" fill="#CACACA"/>
<path d="M20.625 28.7964C20.8929 29.6857 22.0393 31.1107 22.8 31.5071L23.1429 31.6893V30.2536V28.8179L22.3714 28.7429C21.9429 28.7107 21.3536 28.6464 21.0643 28.6036C20.5607 28.5393 20.55 28.55 20.625 28.7964Z" fill="#CACACA"/>
<path d="M25.8 28.7107L24.8571 28.8179V30.2536V31.6893L25.2 31.4964C25.9929 31.0464 27.1071 29.6643 27.375 28.8071C27.45 28.5286 27.3964 28.5286 25.8 28.7107Z" fill="#CACACA"/>
</svg>
