<svg xmlns="http://www.w3.org/2000/svg" width="281.454" height="200.97" viewBox="0 0 281.454 200.97">
  <g id="Group_1916" data-name="Group 1916" transform="translate(-7148.109 -9731.748)">
    <g id="Group_1917" data-name="Group 1917" transform="translate(46.745 -20)">
      <path id="Path_25332" data-name="Path 25332" d="M22.989,0H257.466a22.989,22.989,0,0,1,22.989,22.989V81.138a22.989,22.989,0,0,1-22.989,22.989H22.989A22.989,22.989,0,0,1,0,81.138V22.989A22.989,22.989,0,0,1,22.989,0Z" transform="translate(7101.864 9752.248)" fill="#c6e8ba" stroke="#5bc22e" stroke-width="1" opacity="0.1"/>
      <rect id="Rectangle_16" data-name="Rectangle 16" width="34.274" height="3.439" transform="translate(7324.126 9782.139)" fill="#c6e8ba"/>
      <rect id="Rectangle_17" data-name="Rectangle 17" width="39.395" height="3.439" transform="translate(7324.126 9792.784)" fill="#c6e8ba"/>
      <rect id="Rectangle_18" data-name="Rectangle 18" width="20.382" height="3.439" transform="translate(7324.066 9803.371)" fill="#c6e8ba"/>
      <rect id="Rectangle_19" data-name="Rectangle 19" width="31.402" height="3.439" transform="translate(7324.066 9813.958)" fill="#c6e8ba"/>
      <rect id="Rectangle_24" data-name="Rectangle 24" width="30.55" height="3.764" transform="translate(7138.46 9846.809)" fill="#c6e8ba"/>
      <rect id="Rectangle_25" data-name="Rectangle 25" width="45.373" height="3.763" transform="translate(7131.048 9840.105)" fill="#c6e8ba"/>
      <path id="Path_185" data-name="Path 185" d="M1787.392,470.817a7.888,7.888,0,1,1-7.888-7.888A7.888,7.888,0,0,1,1787.392,470.817Z" transform="translate(5374.301 9317.627)" fill="#c6e8ba"/>
      <path id="Path_186" data-name="Path 186" d="M1777.6,544.614v15a34.69,34.69,0,0,1-28.6,0v-15a14.3,14.3,0,1,1,28.6,0Z" transform="translate(5390.437 9269.544)" fill="#c6e8ba"/>
      <rect id="Rectangle_26" data-name="Rectangle 26" width="73.474" height="4.736" transform="translate(7203.098 9776.777)" fill="#def3e9"/>
      <rect id="Rectangle_27" data-name="Rectangle 27" width="28.554" height="4.736" transform="translate(7284.466 9776.777)" fill="#def3e9"/>
      <rect id="Rectangle_28" data-name="Rectangle 28" width="34.502" height="4.736" transform="translate(7203.098 9765.99)" fill="#def3e9"/>
      <g id="Group_54" data-name="Group 54" transform="translate(7118.2 9762.111)">
        <path id="Path_187" data-name="Path 187" d="M1710.4,469.616a35.229,35.229,0,0,1-14.687-3.167,35.535,35.535,0,1,1,29.372,0A35.221,35.221,0,0,1,1710.4,469.616Zm0-69.192a33.664,33.664,0,1,0,33.658,33.659A33.7,33.7,0,0,0,1710.4,400.424Z" transform="translate(-1674.87 -398.548)" fill="#5bc22e"/>
      </g>
      <g id="Group_68" data-name="Group 68" transform="translate(7208.319 9790.488)">
        <g id="Group_56" data-name="Group 56">
          <rect id="Rectangle_32" data-name="Rectangle 32" width="1.876" height="45.492" fill="#b7e3a6"/>
        </g>
        <g id="Group_57" data-name="Group 57" transform="translate(8.62)">
          <rect id="Rectangle_33" data-name="Rectangle 33" width="1.876" height="45.492" fill="#b7e3a6"/>
        </g>
        <g id="Group_58" data-name="Group 58" transform="translate(17.24)">
          <rect id="Rectangle_34" data-name="Rectangle 34" width="1.876" height="45.492" fill="#b7e3a6"/>
        </g>
        <g id="Group_59" data-name="Group 59" transform="translate(25.861)">
          <rect id="Rectangle_35" data-name="Rectangle 35" width="1.875" height="45.492" fill="#b7e3a6"/>
        </g>
        <g id="Group_60" data-name="Group 60" transform="translate(34.48)">
          <rect id="Rectangle_36" data-name="Rectangle 36" width="1.876" height="45.492" fill="#b7e3a6"/>
        </g>
        <g id="Group_61" data-name="Group 61" transform="translate(43.101)">
          <rect id="Rectangle_37" data-name="Rectangle 37" width="1.876" height="45.492" fill="#b7e3a6"/>
        </g>
        <g id="Group_62" data-name="Group 62" transform="translate(51.72)">
          <rect id="Rectangle_38" data-name="Rectangle 38" width="1.876" height="45.492" fill="#b7e3a6"/>
        </g>
        <g id="Group_63" data-name="Group 63" transform="translate(60.34)">
          <rect id="Rectangle_39" data-name="Rectangle 39" width="1.876" height="45.492" fill="#b7e3a6"/>
        </g>
        <g id="Group_64" data-name="Group 64" transform="translate(68.961)">
          <rect id="Rectangle_40" data-name="Rectangle 40" width="1.875" height="45.492" fill="#b7e3a6"/>
        </g>
        <g id="Group_65" data-name="Group 65" transform="translate(77.581)">
          <rect id="Rectangle_41" data-name="Rectangle 41" width="1.875" height="45.492" fill="#b7e3a6"/>
        </g>
        <g id="Group_66" data-name="Group 66" transform="translate(86.201)">
          <rect id="Rectangle_42" data-name="Rectangle 42" width="1.876" height="45.492" fill="#b7e3a6"/>
        </g>
        <g id="Group_67" data-name="Group 67" transform="translate(94.822)">
          <rect id="Rectangle_43" data-name="Rectangle 43" width="1.875" height="45.492" fill="#b7e3a6"/>
        </g>
      </g>
      <g id="Group_81" data-name="Group 81" transform="translate(7208.319 9797.055)">
        <g id="Group_69" data-name="Group 69" transform="translate(0 7.035)">
          <rect id="Rectangle_44" data-name="Rectangle 44" width="1.876" height="31.891" fill="#5bc22e"/>
        </g>
        <g id="Group_70" data-name="Group 70" transform="translate(8.62 18.056)">
          <rect id="Rectangle_45" data-name="Rectangle 45" width="1.876" height="20.869" fill="#5bc22e"/>
        </g>
        <g id="Group_71" data-name="Group 71" transform="translate(17.24)">
          <rect id="Rectangle_46" data-name="Rectangle 46" width="1.876" height="38.926" fill="#5bc22e"/>
        </g>
        <g id="Group_72" data-name="Group 72" transform="translate(25.861 27.592)">
          <rect id="Rectangle_47" data-name="Rectangle 47" width="1.875" height="11.334" fill="#5bc22e"/>
        </g>
        <g id="Group_73" data-name="Group 73" transform="translate(34.48 16.18)">
          <rect id="Rectangle_48" data-name="Rectangle 48" width="1.876" height="22.746" fill="#5bc22e"/>
        </g>
        <g id="Group_74" data-name="Group 74" transform="translate(43.101 7.66)">
          <rect id="Rectangle_49" data-name="Rectangle 49" width="1.876" height="31.265" fill="#5bc22e"/>
        </g>
        <g id="Group_75" data-name="Group 75" transform="translate(51.72 18.76)">
          <rect id="Rectangle_50" data-name="Rectangle 50" width="1.876" height="20.166" fill="#5bc22e"/>
        </g>
        <g id="Group_76" data-name="Group 76" transform="translate(60.34 4.768)">
          <rect id="Rectangle_51" data-name="Rectangle 51" width="1.876" height="34.158" fill="#5bc22e"/>
        </g>
        <g id="Group_77" data-name="Group 77" transform="translate(68.961 20.166)">
          <rect id="Rectangle_52" data-name="Rectangle 52" width="1.875" height="18.759" fill="#5bc22e"/>
        </g>
        <g id="Group_78" data-name="Group 78" transform="translate(77.581 8.911)">
          <rect id="Rectangle_53" data-name="Rectangle 53" width="1.875" height="30.015" fill="#5bc22e"/>
        </g>
        <g id="Group_79" data-name="Group 79" transform="translate(86.201 23.918)">
          <rect id="Rectangle_54" data-name="Rectangle 54" width="1.876" height="15.007" fill="#5bc22e"/>
        </g>
        <g id="Group_80" data-name="Group 80" transform="translate(94.822 8.911)">
          <rect id="Rectangle_55" data-name="Rectangle 55" width="1.875" height="30.015" fill="#5bc22e"/>
        </g>
      </g>
    </g>
    <g id="Group_1915" data-name="Group 1915" transform="translate(7286.066 9748.494)">
      <g id="Group_204" data-name="Group 204" transform="translate(112.141 54.991)">
        <path id="Path_249" data-name="Path 249" d="M2666.219,1011.073c-.552,1.781-3.058,3.287-4.688,3.946a6.056,6.056,0,0,1-3.382.341l-.83-.154h0l-14.485-2.687s-3.168-36.5,19.791-45.253C2663.232,967.464,2671.288,994.729,2666.219,1011.073Z" transform="translate(-2642.685 -967.266)" fill="#5bc22e" stroke="#005d5a" stroke-width="1"/>
      </g>
      <g id="Group_187" data-name="Group 187" transform="translate(0 39.637)">
        <path id="Path_232" data-name="Path 232" d="M2484.52,982.65l-31.441,17.283L2421.5,950.246l38.19-13.265Z" transform="translate(-2421.503 -936.981)" fill="#5bc22e"/>
      </g>
      <g id="Group_188" data-name="Group 188" transform="translate(2.094 41.103)">
        <path id="Path_233" data-name="Path 233" d="M2484.563,982.583l-29.407,16.163-29.524-46.466,35.711-12.406Z" transform="translate(-2425.633 -939.874)" fill="#f6faf8" stroke="#5bc22e" stroke-width="1"/>
      </g>
      <g id="Group_189" data-name="Group 189" transform="translate(34.512 64.797)">
        <path id="Path_234" data-name="Path 234" d="M2526.852,996.931s-5.475-2.617-7.876-3.984-8.58-3.246-9.078-3.693-18.315-1.545-19.4-2.478-2.133,2.187,2.487,3.2,11.042,3.486,11.394,5.29-4.742,2.232-5.257,3.719.142,1.153.874,1.472,6.058-2.633,8.4-1.8,5.924-.321,7.721.293,10.528,3.554,10.528,3.554Z" transform="translate(-2489.572 -986.605)" fill="#fff" stroke="#005d5a" stroke-width="1"/>
      </g>
      <g id="Group_190" data-name="Group 190" transform="translate(5.97 64.849)">
        <path id="Path_235" data-name="Path 235" d="M2457.351,1018.214s-4.6-4.139-6.822-5.871-6.4-6.823-7.013-7.119-8.589-16.658-9.887-17.315,1.228-2.859,3.977,1.1,7.584,9.05,9.423,8.679.255-5.34,1.458-6.4,1.145-.313,1.727.252-.122,6.735,1.581,8.617,2,5.71,3.284,7.164,7.447,8.539,7.447,8.539Z" transform="translate(-2433.277 -986.706)" fill="#fff" stroke="#005d5a" stroke-width="1"/>
      </g>
      <g id="Group_197" data-name="Group 197" transform="translate(78.275 1.59)">
        <path id="Path_242" data-name="Path 242" d="M2600.457,863.2s-13.793-5.154-20.157,5.346-5.747,31.527,1.207,34.111,17.4,1.234,20.961-5.338,6.771-16.069,6.618-22.419S2604.08,865.037,2600.457,863.2Z" transform="translate(-2575.888 -861.939)" fill="#fff"/>
      </g>
      <g id="Group_198" data-name="Group 198" transform="translate(84.98 29.699)">
        <path id="Path_243" data-name="Path 243" d="M2589.522,930.475s.577,3.724-.374,5.56,17.876,1.882,17.876,1.882a123.837,123.837,0,0,1,4.425-18.413C2614.344,911.072,2589.522,930.475,2589.522,930.475Z" transform="translate(-2589.114 -917.381)" fill="#fff"/>
      </g>
      <g id="Group_199" data-name="Group 199" transform="translate(78.866)">
        <path id="Path_244" data-name="Path 244" d="M2605.5,890.626s-1.3,2.144-6.6,1.312-11.776-7.886-13.987-8.661-2.236-2.076-2.236-2.076l-1.385,2.025-2.353.151s2.147-6.313-1.089-8.886,3.358-20.427,20.361-14.483c0,0,13.061,3.6,12.588,11.029S2608.425,886.926,2605.5,890.626Z" transform="translate(-2577.056 -858.803)" fill="#005d5a"/>
      </g>
      <g id="Group_200" data-name="Group 200" transform="translate(83.896 42.974)">
        <path id="Path_245" data-name="Path 245" d="M2586.977,948.722s.061-3.506,1.651-3.841,17.541-1.868,19.489-1.1v4.085S2604.357,950.175,2586.977,948.722Z" transform="translate(-2586.977 -943.566)" fill="#fff"/>
      </g>
      <g id="Group_201" data-name="Group 201" transform="translate(84.425 16.988)">
        <path id="Path_246" data-name="Path 246" d="M2588.434,895.018c.3-1.245,3.468-4.805,4.682-.994s-1.835,8.942-3.535,8.5S2587.682,898.177,2588.434,895.018Z" transform="translate(-2588.018 -892.311)" fill="#fff"/>
      </g>
      <g id="Group_202" data-name="Group 202" transform="translate(20.527 89.549)">
        <path id="Path_247" data-name="Path 247" d="M2462.055,1035.43a.04.04,0,0,1,.025,0C2461.973,1035.476,2461.958,1035.48,2462.055,1035.43Z" transform="translate(-2461.99 -1035.428)" fill="#363957"/>
      </g>
      <g id="Group_203" data-name="Group 203" transform="translate(20.622 47.27)">
        <path id="Path_248" data-name="Path 248" d="M2573.146,1083.814a146.065,146.065,0,0,1-22.888,4.081c-14.428,1.591-50.474-.574-50.7-2.279s7.752-63.468,7.3-66.649-.7-14.513-.7-14.513c-.175,3.106-3.339,15.79-7.159,22.706-1.381,2.5-6.01,10.327-8.241,8.546-10.8-8.622-27.519-41.114-28.58-41.387.889-.387,7.924-3.627,8.911-3.956.865-.287,8.655,7.961,13.375,13.075,2.106,2.278,3.6,3.934,3.6,3.934,1.363-3.066,6.328-22.386,7.872-29.074,3.479-15.08,2.945-15.707,2.945-15.707,10.554-3.193,26.573-9.691,26.573-9.691l21.14-.861s19.4,4.272,27.043,7.721c.725.327.728,17.307,2.716,21.762l-6.336,13.365s-3.656,26.472-4.415,38.245C2565.249,1038.537,2573.146,1083.814,2573.146,1083.814Z" transform="translate(-2462.177 -952.037)" fill="#5bc22e" stroke="#005d5a" stroke-width="1"/>
      </g>
      <g id="Group_205" data-name="Group 205" transform="translate(126.774 84.276)">
        <path id="Path_250" data-name="Path 250" d="M2675.759,1043.493h0a6.055,6.055,0,0,1-3.382.341l-.83-.154h0l1.43-18.655Z" transform="translate(-2671.547 -1025.024)" fill="#005d5a"/>
      </g>
      <g id="Group_206" data-name="Group 206" transform="translate(42.904 98.67)">
        <path id="Path_251" data-name="Path 251" d="M2509.729,1057.349l-1.771,7.5s-1.919-7.526-1.829-11.433C2508.234,1055.693,2509.729,1057.349,2509.729,1057.349Z" transform="translate(-2506.126 -1053.415)" fill="#005d5a"/>
      </g>
      <g id="Group_207" data-name="Group 207" transform="translate(106.775 4.054)">
        <path id="Path_252" data-name="Path 252" d="M2632.1,866.836s18.076-2.264.306,27.937Z" transform="translate(-2632.1 -866.797)" fill="#005d5a"/>
      </g>
      <g id="Group_208" data-name="Group 208" transform="translate(12.697 42.085)">
        <path id="Path_253" data-name="Path 253" d="M2448.386,949.96l-1.839-3.158,14.479-4.994,1.837,3.139Z" transform="translate(-2446.547 -941.809)" fill="#005d5a"/>
      </g>
    </g>
  </g>
</svg>
