<svg xmlns="http://www.w3.org/2000/svg" width="25" height="16.917" viewBox="0 0 25 16.917"><defs><style>.a{fill:#2d3333;}</style></defs><g transform="translate(0 -82.769)"><g transform="translate(0 82.769)"><path class="a" d="M19.235,90.327c0-4.566-4.813-7.558-9.617-7.558C4.793,82.769,0,85.776,0,90.327a6.65,6.65,0,0,0,2.124,4.741.206.206,0,0,1,.052.2A11.03,11.03,0,0,1,.309,98.809a.544.544,0,0,0,.429.877H.752a8.9,8.9,0,0,0,5.882-2.069.209.209,0,0,1,.2-.053,12.087,12.087,0,0,0,2.786.322C14.44,97.885,19.235,94.88,19.235,90.327ZM7,96.851a.938.938,0,0,0-.879.244,8.2,8.2,0,0,1-4.992,1.841,11.41,11.41,0,0,0,1.754-3.472.939.939,0,0,0-.248-.92,5.847,5.847,0,0,1-1.9-4.217c0-3.764,3.986-6.826,8.885-6.826S18.5,86.563,18.5,90.327s-3.986,6.826-8.885,6.826A11.36,11.36,0,0,1,7,96.851Z" transform="translate(0 -82.769)"/><path class="a" d="M332.614,154.319a5.651,5.651,0,0,0,3.41-4.92c0-2.829-2.557-5.246-6.08-5.747a.366.366,0,0,0-.1.725c3.158.45,5.451,2.562,5.451,5.022a4.938,4.938,0,0,1-3.008,4.266.905.905,0,0,0-.477,1,7.625,7.625,0,0,0,.863,2.143,4.307,4.307,0,0,1-3.242-1.847.9.9,0,0,0-.782-.449h-.03a8.715,8.715,0,0,1-1.208-.084.366.366,0,0,0-.1.725,9.455,9.455,0,0,0,1.31.091h.03a.169.169,0,0,1,.147.083c.992,1.719,3.272,2.158,4.206,2.267a.532.532,0,0,0,.509-.815,7.275,7.275,0,0,1-.986-2.266A.172.172,0,0,1,332.614,154.319Z" transform="translate(-311.024 -140.676)"/><path class="a" d="M55.534,210.733A1.269,1.269,0,1,0,56.8,212,1.271,1.271,0,0,0,55.534,210.733Zm0,1.806a.537.537,0,1,1,.537-.537A.537.537,0,0,1,55.534,212.539Z" transform="translate(-51.615 -204.485)"/><path class="a" d="M129.687,210.733A1.269,1.269,0,1,0,130.956,212,1.271,1.271,0,0,0,129.687,210.733Zm0,1.806a.537.537,0,1,1,.537-.537A.537.537,0,0,1,129.687,212.539Z" transform="translate(-122.148 -204.485)"/><path class="a" d="M203.839,210.733A1.269,1.269,0,1,0,205.108,212,1.271,1.271,0,0,0,203.839,210.733Zm0,1.806a.537.537,0,1,1,.537-.537A.537.537,0,0,1,203.839,212.539Z" transform="translate(-192.679 -204.485)"/><path class="a" d="M277.993,210.733A1.269,1.269,0,1,0,279.262,212,1.271,1.271,0,0,0,277.993,210.733Zm0,1.806a.537.537,0,1,1,.537-.537A.537.537,0,0,1,277.993,212.539Z" transform="translate(-263.212 -204.485)"/></g></g></svg>