<svg xmlns="http://www.w3.org/2000/svg" width="14.64" height="21.472" viewBox="0 0 14.64 21.472"><defs><style>.a{fill:#2d3333;}</style></defs><g transform="translate(-15 -8)"><path class="a" d="M29.152,29.472a.488.488,0,0,0,.488-.488V8.488A.488.488,0,0,0,29.152,8H15.488A.488.488,0,0,0,15,8.488v20.5a.488.488,0,0,0,.773.4l1.994-1.435,1.994,1.435a.489.489,0,0,0,.57,0l1.993-1.434,1.991,1.434a.489.489,0,0,0,.57,0l1.99-1.434,1.991,1.434A.487.487,0,0,0,29.152,29.472Zm-.488-1.441-1.5-1.083a.489.489,0,0,0-.57,0L24.6,28.383,22.61,26.948a.488.488,0,0,0-.57,0l-1.993,1.434-1.994-1.435a.489.489,0,0,0-.57,0l-1.506,1.084V8.976H28.664Z"/><path class="a" d="M27.44,20.784a1.466,1.466,0,0,1-1.464-1.464H25a2.444,2.444,0,0,0,1.952,2.391v1.025h.976V21.711A2.444,2.444,0,0,0,29.88,19.32c0-1.146-.773-1.96-2.3-2.419-1.6-.483-1.6-1.237-1.6-1.485a1.464,1.464,0,1,1,2.928,0h.976a2.444,2.444,0,0,0-1.952-2.391V12h-.976v1.025A2.444,2.444,0,0,0,25,15.416c0,.788.4,1.847,2.3,2.419,1.422.428,1.6,1.019,1.6,1.485A1.466,1.466,0,0,1,27.44,20.784Z" transform="translate(-5.12 -2.048)"/><rect class="a" width="10.736" height="0.976" transform="translate(16.952 22.152)"/><rect class="a" width="10.736" height="0.976" transform="translate(16.952 24.592)"/></g></svg>