<svg xmlns="http://www.w3.org/2000/svg" width="218.433" height="199.819" viewBox="0 0 218.433 199.819"><defs><style>.a,.b{fill:#fff;}.a{stroke:#000;}.a,.b,.c,.d,.e,.f{stroke-miterlimit:10;stroke-width:1.388px;}.b,.c,.d,.e,.f,.g{stroke:#005d5a;}.c{fill:#5bc22e;}.d{fill:none;}.e{fill:#f1ce64;}.f,.h{fill:#005d5a;}.i{opacity:0.5;}</style></defs><g transform="translate(-342.479 -86.255)"><path class="a" d="M611.278,246.274" transform="translate(-107.762 -62.604)"/><g transform="translate(343.179 86.255)"><g transform="translate(0 21.99)"><path class="b" d="M438.829,244.1s-30.7,6.17-40.834,9.671-12.9,23.5,5.526,24.417S450.11,273.4,450.11,273.4Z" transform="translate(-364.38 -170)"/><path class="b" d="M363.8,154.664c-7.574-.442-10.266,5.7-6.813,7.994s5.358,3.683,9.287,6.335,5.962-1.775,2.238-4.775a65.61,65.61,0,0,1-6.187-5.64" transform="translate(-350.874 -135)"/><path class="b" d="M368.132,148.68c-7.574-.443-10.266,5.7-6.813,7.993s5.359,3.684,9.288,6.336,5.962-1.776,2.238-4.776a65.566,65.566,0,0,1-6.187-5.64" transform="translate(-352.569 -132.659)"/><path class="b" d="M370.119,141.461c-7.574-.443-10.267,5.7-6.813,7.993s5.358,3.684,9.287,6.336,5.962-1.775,2.238-4.775a65.579,65.579,0,0,1-6.187-5.64" transform="translate(-353.346 -129.835)"/><path class="b" d="M376.406,132.8c-11.9-3.962-23.125-8.9-27.976-10.423,0,0-2.671,5.421,3.969,7.856s18.4,7.414,18.4,7.414" transform="translate(-347.899 -122.377)"/><path class="b" d="M381.6,163.542s.231,33.172-3.717,56.84c-1.493,8.948,5.632,15.849,13.441,17.176a14.065,14.065,0,0,0,11.436-2.79c3.368-2.761,5.817-7.537,6.211-14.834q.184-3.4.144-6.817c-.332-32.28-14.327-64.679-14.327-64.679s-1.589-6.392-8.212-7.7c-9.1-1.8-17.967,3.64-23.786,8.534,4.439,3.384,7.784,2.1,12.9-1.6-1.788,7.042,5.192,8.865,5.192,8.865" transform="translate(-353.724 -129.422)"/><path class="b" d="M376.456,171.506a25.471,25.471,0,0,0,9.038,4.024,13.457,13.457,0,0,0,7.331-.483" transform="translate(-359.071 -141.598)"/></g><g transform="translate(60.11 76.122)"><path class="c" d="M514.134,218.712c12.426-14.676,26.473-5.7,26.7,10.654s9.9,64.706,9.9,64.706-9.287,18.422-38.609,20.494-36.69-8.059-36.69-8.059-7.837-56.186-5.53-71.844,14.389-13.816,17.1-9.211Z" transform="translate(-455.577 -211.297)"/><path class="d" d="M487.833,229.408s-7.161,11.444-.3,21.167c5.612,7.957,23.744,5.117,30.5-6.652" transform="translate(-461.474 -218.383)"/><path class="d" d="M548.11,229.188s3.82-5.052,2.831-14.423" transform="translate(-486.338 -212.654)"/><path class="d" d="M509.78,271.429s.611,11.244,1.38,26.749" transform="translate(-471.342 -234.823)"/><path class="c" d="M468.779,229.916c-18.626,5.2-22.14,11.659-22.14,11.659l6.738,33.531,11.922-2.091" transform="translate(-446.639 -218.582)"/></g><g transform="translate(83.834 76.048)"><path class="b" d="M574.667,346.378,563.4,345.025s-10.009-.746-15.665-1.13-7.526-10.738,6.759-9.971C562.932,334.377,571.066,338.544,574.667,346.378Z" transform="translate(-508.267 -259.183)"/><path class="b" d="M488.743,304.435l41.656-9.589a4.039,4.039,0,0,1,4.857,3.1l11.841,55.83a4.039,4.039,0,0,1-3.192,4.805l-43.343,8.288a4.039,4.039,0,0,1-4.73-3.228l-10.153-54.53A4.038,4.038,0,0,1,488.743,304.435Z" transform="translate(-485.61 -243.87)"/><path class="b" d="M501.788,315.011l29.654-7.379a2.881,2.881,0,0,1,3.457,2.384l8.429,42.969a3.109,3.109,0,0,1-2.273,3.7L510.2,363.062a2.9,2.9,0,0,1-3.366-2.484l-7.228-41.969A3.115,3.115,0,0,1,501.788,315.011Z" transform="translate(-491.067 -248.881)"/><g transform="translate(33.622)"><path class="b" d="M593.6,315.339c-8.136-8.75-14.842-7.12-14.842-7.12-7.521,0-3.941,15-1.28,23.7s14.251,8.392,21.9,5.834c8.7-2.911,17.3-13.279,24.2-26.148s15.968-31.686,8.29-42.676c-7.829-11.207-32.545-28.324-32.545-28.324l-17.461,27.633,26.713,17.884S598.2,307.564,593.6,315.339Z" transform="translate(-553.911 -222.688)"/><path class="b" d="M573.052,349.537c-4.605-7.215-20.724-6.509-27.633-3.638s-5.68,8.7,1.535,7.169,18.217-1.478,20.71,3.636" transform="translate(-540.84 -263.084)"/><path class="b" d="M573.052,357.359c-4.605-7.215-20.724-6.508-27.633-3.638s-5.68,8.7,1.535,7.169,18.217-1.478,20.71,3.636" transform="translate(-540.84 -266.144)"/><path class="b" d="M575.039,370.219c-4.605-7.215-20.724-6.509-27.633-3.638s-5.68,8.7,1.535,7.169,18.217-1.478,20.71,3.636" transform="translate(-541.618 -271.175)"/><path class="b" d="M577.317,383.4c-4.605-7.215-20.724-6.509-27.633-3.638s-5.68,8.7,1.535,7.169,18.217-1.478,20.71,3.636" transform="translate(-542.509 -276.333)"/><path class="c" d="M561.837,211.261c16.7-1.515,36.157,17.828,36.157,17.828l-19.921,33.936L559.079,250.5" transform="translate(-547.976 -211.176)"/></g><path class="e" d="M502.425,301.426l6.113,28.3,25.79-5.148-5.836-29.153Z" transform="translate(-492.189 -244.137)"/></g><g transform="translate(51.825)"><g transform="translate(16.002 10.118)"><path class="d" d="M459.325,154.484a21.238,21.238,0,0,1,2.772-11.666c0-13.678,2.74-27.5,21.185-28.451,14.891-.768,24.869,11.191,24.869,24.869V150.9c0,6.763-9.313,22.412-26.1,22.412S459.526,162.059,459.325,154.484Z" transform="translate(-459.316 -107.357)"/><path class="b" d="M526.423,151.959s3.573-6.838,8.085-3.808c4.454,2.991,2.252,21-7.062,16.908" transform="translate(-485.571 -120.286)"/><path class="a" d="M531.971,162.185s.1-4.95,3.377-5.936" transform="translate(-487.741 -123.757)"/><path class="f" d="M469.908,116.172c4.963-5.367,15.476-.3,15.286,8.91s10.863,10.285,10.863,10.285V141.3h4.605l2.578-8.546s3-4.495,6.889-2.017c6.038-9.957-2.933-14.256-2.933-14.256s-10.244-19.5-29.407-11.82-12.594,21.106-12.594,21.106S464.944,121.539,469.908,116.172Z" transform="translate(-461.191 -102.875)"/><g transform="translate(3.315 26.71)"><path class="b" d="M479.338,151.962s3.147,2.728-1.919,13.628c-1.048,2.256,4.605,6.141,6.832,1.689" transform="translate(-469.663 -148.79)"/><rect class="g" width="3.127" height="4.132" rx="1.563" transform="translate(3.839 6.557)"/><path class="d" d="M464.761,148.592c1.036-2.149,4.989-2.609,6.6-.345" transform="translate(-464.761 -146.751)"/><g transform="translate(17.388 0.381)"><rect class="g" width="3.127" height="4.132" rx="1.563" transform="translate(3.3 6.175)"/><path class="d" d="M493.324,149.219c1.036-2.149,4.989-2.61,6.6-.346" transform="translate(-493.324 -147.377)"/></g><path class="b" d="M490.993,186.357s7.292,1.765,11.437-6.908" transform="translate(-475.024 -159.543)"/></g><path class="b" d="M517.559,191.039l7.836,19.747s-.159,10.6-14.516,17.562-12.536-6.091-12.536-6.091V203.326s7.263-.187,11.525-5.119" transform="translate(-474.556 -137.368)"/></g><path class="h" d="M469.669,86.627l-34.691,17.346a3.519,3.519,0,0,0,1.138,6.639l36.341,4.53a3.52,3.52,0,0,0,1.7-.209l36.051-13.912a3.519,3.519,0,0,0-.54-6.726l-37.7-7.963A3.521,3.521,0,0,0,469.669,86.627Z" transform="translate(-433.03 -86.255)"/></g></g><g transform="translate(335.835 96.373)"><g transform="translate(132.221)"><g transform="translate(0 4.339)"><path class="d" d="M553.029,110s3.709,28.469,21.67,31.121" transform="translate(-553.029 -110.003)"/><circle class="e" cx="6.674" cy="6.674" r="6.674" transform="translate(20.881 26.386)"/></g><g transform="translate(24.792)"><path class="b" d="M643.87,185.911a7.98,7.98,0,1,1-7.98-7.98A7.98,7.98,0,0,1,643.87,185.911Z" transform="translate(-607.116 -132.239)"/><path class="d" d="M622.526,156.547s10.336-47.811-28.773-53.672" transform="translate(-593.753 -102.875)"/></g></g><g class="i" transform="translate(192.133 64.486)"><path class="h" d="M671.675,212.159a2.178,2.178,0,1,1-.655-3.01A2.178,2.178,0,0,1,671.675,212.159Z" transform="translate(-657.79 -208.804)"/><path class="h" d="M687.044,222.036a2.178,2.178,0,1,1-.655-3.01A2.179,2.179,0,0,1,687.044,222.036Z" transform="translate(-663.803 -212.668)"/><path class="h" d="M702.413,231.913a2.178,2.178,0,1,1-.655-3.01A2.178,2.178,0,0,1,702.413,231.913Z" transform="translate(-669.816 -216.532)"/><path class="h" d="M663.565,224.779a2.178,2.178,0,1,1-.655-3.01A2.178,2.178,0,0,1,663.565,224.779Z" transform="translate(-654.618 -213.741)"/><path class="h" d="M678.934,234.656a2.178,2.178,0,1,1-.655-3.01A2.178,2.178,0,0,1,678.934,234.656Z" transform="translate(-660.63 -217.605)"/><path class="h" d="M694.3,244.532a2.178,2.178,0,1,1-.655-3.01A2.179,2.179,0,0,1,694.3,244.532Z" transform="translate(-666.643 -221.469)"/><path class="h" d="M655.455,237.4a2.178,2.178,0,1,1-.655-3.01A2.178,2.178,0,0,1,655.455,237.4Z" transform="translate(-651.445 -218.678)"/><path class="h" d="M670.824,247.275a2.178,2.178,0,1,1-.655-3.01A2.178,2.178,0,0,1,670.824,247.275Z" transform="translate(-657.458 -222.542)"/><path class="h" d="M686.193,257.152a2.178,2.178,0,1,1-.655-3.01A2.179,2.179,0,0,1,686.193,257.152Z" transform="translate(-663.47 -226.406)"/></g><g class="i" transform="translate(28 132.923)"><path class="h" d="M361.747,285.593a2.178,2.178,0,1,1,.158-3.076A2.178,2.178,0,0,1,361.747,285.593Z" transform="translate(-344.55 -281.798)"/><path class="h" d="M373.986,299.157a2.178,2.178,0,1,1,.158-3.077A2.178,2.178,0,0,1,373.986,299.157Z" transform="translate(-349.338 -287.104)"/><path class="h" d="M386.224,312.721a2.178,2.178,0,1,1,.158-3.077A2.178,2.178,0,0,1,386.224,312.721Z" transform="translate(-354.126 -292.411)"/><path class="h" d="M350.61,295.642a2.178,2.178,0,1,1,.158-3.076A2.178,2.178,0,0,1,350.61,295.642Z" transform="translate(-340.193 -285.729)"/><path class="h" d="M362.848,309.206a2.178,2.178,0,1,1,.158-3.076A2.179,2.179,0,0,1,362.848,309.206Z" transform="translate(-344.981 -291.036)"/><path class="h" d="M375.086,322.77a2.178,2.178,0,1,1,.158-3.077A2.178,2.178,0,0,1,375.086,322.77Z" transform="translate(-349.768 -296.342)"/><path class="h" d="M339.472,305.691a2.178,2.178,0,1,1,.158-3.076A2.178,2.178,0,0,1,339.472,305.691Z" transform="translate(-335.835 -289.66)"/><path class="h" d="M351.711,319.255a2.178,2.178,0,1,1,.158-3.077A2.178,2.178,0,0,1,351.711,319.255Z" transform="translate(-340.623 -294.967)"/><path class="h" d="M363.949,332.819a2.178,2.178,0,1,1,.158-3.077A2.178,2.178,0,0,1,363.949,332.819Z" transform="translate(-345.411 -300.274)"/></g></g></g></svg>