<svg xmlns="http://www.w3.org/2000/svg" width="16" height="9.6" viewBox="0 0 16 9.6"><defs><style>.a{fill:#2d3333;opacity:0.5;}</style></defs><path class="a" d="M15.559,6.73,8.585,4.587a2,2,0,0,0-1.17,0L.442,6.73a.589.589,0,0,0,0,1.14l1.216.374A1.97,1.97,0,0,0,1.21,9.416a.771.771,0,0,0-.064,1.326L.508,13.613A.4.4,0,0,0,.9,14.1H2.3a.4.4,0,0,0,.391-.487l-.638-2.872a.769.769,0,0,0-.045-1.313,1.179,1.179,0,0,1,.517-.918l4.889,1.5a2,2,0,0,0,1.17,0L15.559,7.87a.589.589,0,0,0,0-1.14ZM8.82,10.777a2.8,2.8,0,0,1-1.64,0L3.555,9.663,3.2,12.5c0,.884,2.149,1.6,4.8,1.6s4.8-.716,4.8-1.6l-.355-2.837Z" transform="translate(0 -4.5)"/></svg>