<svg xmlns="http://www.w3.org/2000/svg" width="40" height="40" viewBox="0 0 40 40"><defs><style>.a{fill:#76be4e;}.b{fill:none;stroke:#fff;stroke-linecap:round;stroke-linejoin:round;stroke-width:1.5px;}.c,.d{stroke:none;}.d{fill:#fff;}</style></defs><g transform="translate(-378 -225)"><g class="a" transform="translate(378 225)"><path class="c" d="M 20 38.5 C 15.05846977233887 38.5 10.4127197265625 36.57566070556641 6.918529987335205 33.08147811889648 C 3.424340009689331 29.58728981018066 1.5 24.94153022766113 1.5 20 C 1.5 15.05846977233887 3.424340009689331 10.4127197265625 6.918529987335205 6.918529987335205 C 10.4127197265625 3.424340009689331 15.05846977233887 1.5 20 1.5 C 24.94153022766113 1.5 29.58728981018066 3.424340009689331 33.08147811889648 6.918529987335205 C 36.57566070556641 10.4127197265625 38.5 15.05846977233887 38.5 20 C 38.5 24.94153022766113 36.57566070556641 29.58728981018066 33.08147811889648 33.08147811889648 C 29.58728981018066 36.57566070556641 24.94153022766113 38.5 20 38.5 Z"/><path class="d" d="M 20 3 C 15.45912933349609 3 11.19005966186523 4.768310546875 7.979179382324219 7.979179382324219 C 4.768310546875 11.19005966186523 3 15.45912933349609 3 20 C 3 24.54087066650391 4.768310546875 28.80994033813477 7.979179382324219 32.02082061767578 C 11.19005966186523 35.231689453125 15.45912933349609 37 20 37 C 24.54087066650391 37 28.80994033813477 35.231689453125 32.02082061767578 32.02082061767578 C 35.231689453125 28.80994033813477 37 24.54087066650391 37 20 C 37 15.45912933349609 35.231689453125 11.19005966186523 32.02082061767578 7.979179382324219 C 28.80994033813477 4.768310546875 24.54087066650391 3 20 3 M 20 0 C 31.04570007324219 0 40 8.954299926757812 40 20 C 40 31.04570007324219 31.04570007324219 40 20 40 C 8.954299926757812 40 0 31.04570007324219 0 20 C 0 8.954299926757812 8.954299926757812 0 20 0 Z"/></g><g transform="translate(387.6 233)"><path class="b" d="M19.5,17.591a1.636,1.636,0,0,1-1.636,1.636H3.136A1.636,1.636,0,0,1,1.5,17.591v-9A1.636,1.636,0,0,1,3.136,6.955H6.409L8.045,4.5h4.909l1.636,2.455h3.273A1.636,1.636,0,0,1,19.5,8.591Z"/><path class="b" d="M18.545,16.773A3.273,3.273,0,1,1,15.273,13.5a3.273,3.273,0,0,1,3.273,3.273Z" transform="translate(-4.773 -4.091)"/></g></g></svg>