<svg xmlns="http://www.w3.org/2000/svg" width="30.32" height="40" viewBox="0 0 30.32 40"><defs><style>.a{fill:#d0e7c4;}.b{fill:#bdd8ae;}.c{fill:#a9c39b;}.d{fill:#4fa273;}.e{fill:#5bb381;}.f{fill:#e7f1e2;}.g{fill:#ffcebe;}.h{fill:#ffb1a0;}.i{fill:#ff656f;}.j{fill:#ff4756;}.k{fill:#43cb8e;}.l{fill:#00ba66;}.m{fill:#dfebfa;}</style></defs><g transform="translate(-61.954)"><path class="a" d="M61.954,55.347V89.476A1.547,1.547,0,0,0,63.5,91.023H90.726a1.547,1.547,0,0,0,1.547-1.547V55.347Z" transform="translate(0 -51.023)"/><path class="b" d="M64.61,89.476V55.347H61.954V89.476A1.547,1.547,0,0,0,63.5,91.023h2.656A1.547,1.547,0,0,1,64.61,89.476Z" transform="translate(0 -51.023)"/><path class="c" d="M141.095,0h-24.5V4.485h26.051V1.547A1.547,1.547,0,0,0,141.095,0Z" transform="translate(-50.369)"/><path class="d" d="M66.383,0H63.5a1.547,1.547,0,0,0-1.547,1.547V4.485h4.429V0Z" transform="translate(0)"/><path class="e" d="M66.157,0H63.5a1.547,1.547,0,0,0-1.547,1.547V4.485H64.61V1.547A1.547,1.547,0,0,1,66.157,0Z" transform="translate(0)"/><g transform="translate(68.724 1.639)"><path class="f" d="M169.167,22.185H149.22a.6.6,0,0,1,0-1.207h19.947a.6.6,0,0,1,0,1.207Z" transform="translate(-148.616 -20.978)"/></g><path class="e" d="M189.679,89.013A5.619,5.619,0,0,0,186.2,99.042V97.615a1.837,1.837,0,0,1,1.744-1.908h3.481a1.837,1.837,0,0,1,1.744,1.908v1.427a5.619,5.619,0,0,0-3.484-10.029Z" transform="translate(-112.566 -82.059)"/><g transform="translate(71.493 6.954)"><path class="d" d="M186.574,94.634a5.621,5.621,0,0,1,4.363-5.477,5.619,5.619,0,0,0-4.742,9.886V97.616a1.985,1.985,0,0,1,.6-1.433A5.617,5.617,0,0,1,186.574,94.634Z" transform="translate(-184.059 -89.014)"/></g><circle class="g" cx="2.055" cy="2.055" r="2.055" transform="translate(75.059 9.395)"/><path class="h" d="M231.468,122.317a2.055,2.055,0,0,1,1.17-1.855,2.055,2.055,0,1,0,0,3.71A2.055,2.055,0,0,1,231.468,122.317Z" transform="translate(-154.638 -110.867)"/><path class="i" d="M215.394,172.868H211.8a1.8,1.8,0,0,0-1.8,1.8v1.592a5.619,5.619,0,0,0,7.187,0v-1.592A1.8,1.8,0,0,0,215.394,172.868Z" transform="translate(-136.485 -159.363)"/><path class="j" d="M211.776,174.505a1.8,1.8,0,0,1,1.058-1.637H211.8a1.8,1.8,0,0,0-1.8,1.8v1.592a5.615,5.615,0,0,0,1.771,1Z" transform="translate(-136.485 -159.363)"/><path class="k" d="M111.54,271.741h-5.972a.825.825,0,0,0-.825.825v4.671a.825.825,0,0,0,.825.825h5.972a.825.825,0,0,0,.825-.825v-4.671A.825.825,0,0,0,111.54,271.741Z" transform="translate(-39.446 -250.511)"/><path class="k" d="M111.54,387.388h-5.972a.825.825,0,0,0-.825.825v4.671a.825.825,0,0,0,.825.825h5.972a.825.825,0,0,0,.825-.825v-4.671A.825.825,0,0,0,111.54,387.388Z" transform="translate(-39.446 -357.123)"/><path class="l" d="M106.815,277.237v-4.671a.825.825,0,0,1,.825-.825h-2.072a.825.825,0,0,0-.825.825v4.671a.825.825,0,0,0,.825.825h2.072A.825.825,0,0,1,106.815,277.237Z" transform="translate(-39.446 -250.511)"/><path class="l" d="M106.815,392.884v-4.671a.825.825,0,0,1,.825-.825h-2.072a.825.825,0,0,0-.825.825v4.671a.825.825,0,0,0,.825.825h2.072A.825.825,0,0,1,106.815,392.884Z" transform="translate(-39.446 -357.123)"/><g transform="translate(75.153 21.404)"><path class="e" d="M244.11,275.18h-12.6a.6.6,0,1,1,0-1.207h12.6a.6.6,0,1,1,0,1.207Z" transform="translate(-230.905 -273.973)"/></g><g transform="translate(75.153 23.786)"><path class="b" d="M244.11,305.673h-12.6a.6.6,0,1,1,0-1.207h12.6a.6.6,0,1,1,0,1.207Z" transform="translate(-230.905 -304.466)"/></g><g transform="translate(75.153 26.169)"><path class="b" d="M244.11,336.167h-12.6a.6.6,0,1,1,0-1.207h12.6a.6.6,0,1,1,0,1.207Z" transform="translate(-230.905 -334.96)"/></g><g transform="translate(75.153 30.439)"><path class="e" d="M244.11,390.827h-12.6a.6.6,0,1,1,0-1.207h12.6a.6.6,0,1,1,0,1.207Z" transform="translate(-230.905 -389.62)"/></g><g transform="translate(75.153 32.821)"><path class="b" d="M244.11,421.32h-12.6a.6.6,0,1,1,0-1.207h12.6a.6.6,0,1,1,0,1.207Z" transform="translate(-230.905 -420.113)"/></g><g transform="translate(75.153 35.204)"><path class="b" d="M244.11,451.814h-12.6a.6.6,0,1,1,0-1.207h12.6a.6.6,0,1,1,0,1.207Z" transform="translate(-230.905 -450.607)"/></g><g transform="translate(67.289 23.056)"><path class="m" d="M131.812,297.788a.6.6,0,0,1-.427-.177l-.971-.971a.6.6,0,0,1,.854-.854l.544.544,1.033-1.033a.6.6,0,1,1,.854.854l-1.46,1.46A.6.6,0,0,1,131.812,297.788Z" transform="translate(-130.238 -295.12)"/></g><g transform="translate(67.289 32.091)"><path class="m" d="M131.812,413.435a.6.6,0,0,1-.427-.177l-.971-.971a.6.6,0,0,1,.854-.854l.544.544,1.033-1.033a.6.6,0,1,1,.854.854l-1.46,1.46A.6.6,0,0,1,131.812,413.435Z" transform="translate(-130.238 -410.767)"/></g></g></svg>