<svg xmlns="http://www.w3.org/2000/svg" width="308.466" height="198.229" viewBox="0 0 308.466 198.229"><defs><style>.a{fill:#e9f5e7;}.b{fill:#82b378;}.c{fill:#eac3a0;}.d{fill:#d39e7a;}.e{fill:#fff;}.f{fill:#ffeede;}.g{fill:#efcbab;}.h{fill:#f9ddbf;}.i{fill:#fcecdb;}.j{fill:#699dee;}.k{fill:#548ee2;}.l{fill:#f4d2b8;}.m{fill:#b5453c;}.n{fill:#568cdb;}.o{fill:#f99746;}.p{fill:#fff0e3;}.q{fill:#ffb27d;}.r{fill:#f3a36c;}.s{fill:#233862;}.t{fill:#adc8fe;}.u{fill:#8eb3ef;}.v{fill:#ed7d2b;}.w{fill:#e8945b;}.x{fill:#d7e6ff;}.y{opacity:0.6;}.z{fill:#a8d29f;}</style></defs><g transform="translate(-141.331 -162.225)"><path class="a" d="M504.853,360.377s21.875-27.769,10.757-103.206C495.762,122.51,234.823,147.042,257.667,231.976c14.362,53.4-73.225,43.186-39.642,128.478Z" transform="translate(-68.964 0)"/><rect class="b" width="135.088" height="90.233" transform="translate(224.787 190.413)"/><g transform="translate(222.312 188.441)"><path class="c" d="M1027.5,475.621H887.461V381.446H1027.5ZM889.936,473.65h135.088V383.417H889.936Z" transform="translate(-887.461 -381.446)"/></g><path class="d" d="M1.39,0H142.944a1.389,1.389,0,0,1,1.389,1.389v0a1.389,1.389,0,0,1-1.389,1.389H1.39A1.39,1.39,0,0,1,0,1.39v0A1.39,1.39,0,0,1,1.39,0Z" transform="translate(220.272 279.762)"/><path class="e" d="M.92,0H4.987a.92.92,0,0,1,.92.92v0a.92.92,0,0,1-.92.92H.92A.92.92,0,0,1,0,.92v0A.92.92,0,0,1,.92,0Z" transform="translate(328.049 277.922)"/><rect class="e" width="3.422" height="1.84" rx="0.92" transform="translate(303.204 277.922)"/><rect class="e" width="5.958" height="1.84" rx="0.92" transform="translate(296.233 277.922)"/><g transform="translate(380.377 205.454)"><path class="c" d="M10.746,0h.661A10.745,10.745,0,0,1,22.152,10.745v0A10.746,10.746,0,0,1,11.406,21.491h-.661A10.745,10.745,0,0,1,0,10.746v0A10.746,10.746,0,0,1,10.746,0Z" transform="translate(0 0)"/><path class="f" d="M9.814,0h.6a9.815,9.815,0,0,1,9.815,9.815v0a9.815,9.815,0,0,1-9.815,9.815h-.6A9.815,9.815,0,0,1,0,9.815v0A9.814,9.814,0,0,1,9.814,0Z" transform="translate(0.96 0.931)"/><g transform="translate(2.615 2.434)"><g transform="translate(8.002)"><path class="c" d="M2298,544.513a.459.459,0,1,1,.458.459A.459.459,0,0,1,2298,544.513Z" transform="translate(-2297.998 -544.054)"/><path class="c" d="M2328.534,551.577a.459.459,0,1,1,.178.624A.459.459,0,0,1,2328.534,551.577Z" transform="translate(-2324.832 -550.469)"/><path class="c" d="M2353.939,573.849a.459.459,0,1,1-.137.634A.458.458,0,0,1,2353.939,573.849Z" transform="translate(-2347.063 -570.221)"/><path class="c" d="M2365.247,607.007a.459.459,0,1,1-.459.459A.458.458,0,0,1,2365.247,607.007Z" transform="translate(-2356.801 -599.479)"/><path class="c" d="M2356.148,643.872a.459.459,0,1,1-.649,0A.458.458,0,0,1,2356.148,643.872Z" transform="translate(-2348.505 -631.817)"/><path class="c" d="M2332.055,668.03a.459.459,0,1,1-.649,0A.46.46,0,0,1,2332.055,668.03Z" transform="translate(-2327.292 -653.086)"/><path class="c" d="M2298,678.094a.459.459,0,1,1,.458.459A.459.459,0,0,1,2298,678.094Z" transform="translate(-2297.998 -661.66)"/></g><g transform="translate(0 0.871)"><path class="c" d="M2268.256,551.577a.459.459,0,1,0-.178.624A.459.459,0,0,0,2268.256,551.577Z" transform="translate(-2263.053 -551.341)"/><path class="c" d="M2242.851,573.849a.459.459,0,1,0,.136.634A.46.46,0,0,0,2242.851,573.849Z" transform="translate(-2240.82 -571.093)"/><path class="c" d="M2231.543,607.007a.459.459,0,1,0,.459.459A.46.46,0,0,0,2231.543,607.007Z" transform="translate(-2231.084 -600.35)"/><path class="c" d="M2240.642,643.872a.459.459,0,1,0,.65,0A.458.458,0,0,0,2240.642,643.872Z" transform="translate(-2239.381 -632.688)"/><path class="c" d="M2264.738,668.03a.459.459,0,1,0,.648,0A.459.459,0,0,0,2264.738,668.03Z" transform="translate(-2260.595 -653.957)"/></g></g><g transform="translate(10.952 4.688)"><path class="c" d="M2300.8,607.466a.459.459,0,1,1,.458.459A.459.459,0,0,1,2300.8,607.466Z" transform="translate(-2300.801 -601.733)"/><g transform="translate(0.396)"><rect class="c" width="0.125" height="5.733"/></g><g transform="translate(0.285 3.191)"><rect class="c" width="3.864" height="0.376" transform="translate(0 2.385) rotate(-38.128)"/></g></g></g><path class="d" d="M450.036,1387.058v1.275c0,.448-.145.812-.321.812H403.141c-.177,0-.321-.365-.321-.812v-1.275c0-.447.145-.812.321-.812h46.574C449.891,1386.246,450.036,1386.611,450.036,1387.058Z" transform="translate(-238.465 -1077.642)"/><path class="g" d="M521.095,1387.058v1.275c0,.448-.133.812-.295.812H483.826c-.162,0-.295-.365-.295-.812v-1.275c0-.447.133-.812.295-.812H520.8C520.962,1386.246,521.095,1386.611,521.095,1387.058Z" transform="translate(-309.525 -1077.642)"/><rect class="c" width="33.064" height="48.193" transform="translate(166.718 311.503)"/><rect class="h" width="33.064" height="48.193" transform="translate(175.984 311.503)"/><g transform="translate(177.762 312.865)"><g transform="translate(0 0)"><path class="c" d="M544.441,1466.051H514.93v-44.17h29.511Zm-29.192-.318h28.874V1422.2H515.249Z" transform="translate(-514.93 -1421.881)"/></g><g transform="translate(0.159 14.612)"><rect class="c" width="29.192" height="0.319"/></g><g transform="translate(0.159 29.509)"><rect class="c" width="29.192" height="0.319"/></g><path class="c" d="M619.931,1438.664h-5.417a.479.479,0,0,1-.478-.478h0a.479.479,0,0,1,.478-.478h5.417a.479.479,0,0,1,.478.478h0A.479.479,0,0,1,619.931,1438.664Z" transform="translate(-602.184 -1435.815)"/><path class="c" d="M619.931,1560.478h-5.417a.479.479,0,0,1-.478-.478h0a.479.479,0,0,1,.478-.478h5.417a.479.479,0,0,1,.478.478h0A.48.48,0,0,1,619.931,1560.478Z" transform="translate(-602.184 -1543.061)"/><path class="c" d="M619.931,1687.462h-5.417a.479.479,0,0,1-.478-.479h0a.479.479,0,0,1,.478-.477h5.417a.479.479,0,0,1,.478.477h0A.479.479,0,0,1,619.931,1687.462Z" transform="translate(-602.184 -1654.86)"/></g><g transform="translate(389.464 318.649)"><path class="c" d="M2288.144,1510.745h.057a.6.6,0,0,0,.6-.616l-.914-39.567-2.689-.313,2.294,39.883A.649.649,0,0,0,2288.144,1510.745Z" transform="translate(-2285.2 -1470.249)"/></g><g transform="translate(405.134 318.649)"><path class="c" d="M2419.178,1510.745h.057a.6.6,0,0,0,.6-.616l-.914-39.567-2.688-.313,2.294,39.883A.649.649,0,0,0,2419.178,1510.745Z" transform="translate(-2416.235 -1470.249)"/></g><g transform="translate(364.176 318.649)"><path class="c" d="M2074.4,1510.745h-.058a.6.6,0,0,1-.6-.616l.913-39.567,2.689-.313-2.293,39.883A.649.649,0,0,1,2074.4,1510.745Z" transform="translate(-2073.743 -1470.249)"/></g><path class="g" d="M2184.739,1189.147v-27.114a8.639,8.639,0,0,0-8.639-8.638h-19.534a8.639,8.639,0,0,0-8.639,8.638v28.15Z" transform="translate(-1774.879 -872.638)"/><path class="c" d="M4.28,0H40.311a0,0,0,0,1,0,0V4.28a0,0,0,0,1,0,0H0a0,0,0,0,1,0,0v0A4.28,4.28,0,0,1,4.28,0Z" transform="translate(409.859 320.789) rotate(180)"/><path class="h" d="M2.14,0H30.23a2.14,2.14,0,0,1,2.14,2.14v0a2.14,2.14,0,0,1-2.14,2.14H2.14A2.14,2.14,0,0,1,0,2.14v0A2.14,2.14,0,0,1,2.14,0Z" transform="translate(395.481 320.789) rotate(180)"/><g transform="translate(336 300.86)"><g transform="translate(88.78 2.413)"><path class="d" d="M2584.41,1398.374h.075a.822.822,0,0,0,.8-.863l-1.208-55.4-3.556-.439,3.033,55.842A.883.883,0,0,0,2584.41,1398.374Z" transform="translate(-2580.517 -1341.673)"/></g><g transform="translate(5.07 2.413)"><path class="d" d="M1881.4,1398.374h-.076a.822.822,0,0,1-.8-.863l1.208-55.4,3.555-.439-3.032,55.842A.883.883,0,0,1,1881.4,1398.374Z" transform="translate(-1880.529 -1341.673)"/></g><rect class="d" width="100.748" height="3.871" rx="1.936" transform="translate(0)"/></g><g transform="translate(344.41 295.318)"><g transform="translate(0 0)"><path class="i" d="M0,0H8.569a1.543,1.543,0,0,1,1.543,1.543v0A1.578,1.578,0,0,1,8.534,3.121H0a0,0,0,0,1,0,0V0A0,0,0,0,1,0,0Z" transform="translate(0.469 0)"/><path class="j" d="M1926.581,1276.44v.469a1.367,1.367,0,0,1-1.367,1.367h-16.557a.2.2,0,0,1-.2-.2v-.071a.2.2,0,0,1,.2-.2h10.094a1.324,1.324,0,0,0,.141-.213,1.262,1.262,0,0,0,.149-.6v-.6a1.3,1.3,0,0,0-.041-.317,1.253,1.253,0,0,0-.235-.464h-10.108a.2.2,0,0,1-.2-.2v-.07a.2.2,0,0,1,.2-.2h16.64a1.285,1.285,0,0,1,1.284,1.284Z" transform="translate(-1908.457 -1275.156)"/><path class="k" d="M1926.531,1276.086H1919a1.253,1.253,0,0,0-.235-.464h-10.108a.2.2,0,0,1-.2-.2v-.07a.2.2,0,0,1,.2-.2h16.64A1.283,1.283,0,0,1,1926.531,1276.086Z" transform="translate(-1908.457 -1275.156)"/><path class="l" d="M1912.381,1288.2l1.227.052-1.227.032Z" transform="translate(-1911.912 -1286.644)"/><path class="l" d="M1912.381,1292.3l2.917.053-2.917.031Z" transform="translate(-1911.912 -1290.249)"/></g><g transform="translate(1.325 3.114)"><path class="m" d="M1920.786,1303.624h9.406V1301.2h-9.482a1.175,1.175,0,0,0-1.176,1.176h0A1.252,1.252,0,0,0,1920.786,1303.624Z" transform="translate(-1919.534 -1301.197)"/><path class="i" d="M0,0H10.7a1.227,1.227,0,0,1,1.227,1.227v0a1.2,1.2,0,0,1-1.2,1.2H0a0,0,0,0,1,0,0V0A0,0,0,0,1,0,0Z" transform="translate(20.823 2.427) rotate(-180)"/><path class="m" d="M1986.607,1318.822h13.015a.181.181,0,0,0,.181-.182h0a.181.181,0,0,0-.181-.181h-13.015a.181.181,0,0,0-.181.181h0A.182.182,0,0,0,1986.607,1318.822Z" transform="translate(-1978.427 -1316.395)"/><path class="m" d="M1986.607,1301.56h13.015a.181.181,0,0,0,.181-.181h0a.181.181,0,0,0-.181-.182h-13.015a.181.181,0,0,0-.181.182h0A.181.181,0,0,0,1986.607,1301.56Z" transform="translate(-1978.427 -1301.197)"/><path class="l" d="M2083.013,1311.346l-1.446.041,1.446.025Z" transform="translate(-2062.189 -1310.132)"/><path class="l" d="M2068.333,1306.675l-3.442.041,3.442.025Z" transform="translate(-2047.507 -1306.02)"/><g transform="translate(17.418 0.688)"><path class="j" d="M2065.188,1306.948a.568.568,0,0,1,.2.275.4.4,0,0,1,.014.1c.009.228,0,.744,0,.744l.436-.258.435.258v-.7a.547.547,0,0,0-.107-.344.161.161,0,0,0-.119-.072Z" transform="translate(-2065.188 -1306.948)"/><path class="n" d="M2065.188,1306.948a.568.568,0,0,1,.2.275l.872.011s-.036-.246-.214-.286Z" transform="translate(-2065.188 -1306.948)"/></g></g></g><g transform="translate(342.945 292.986)"><g transform="translate(0 0)"><path class="o" d="M0,0H4.639a1.13,1.13,0,0,1,1.13,1.13v0a1.2,1.2,0,0,1-1.2,1.2H0a0,0,0,0,1,0,0V0A0,0,0,0,1,0,0Z" transform="translate(15.236)"/><path class="i" d="M0,0H15.8a1.153,1.153,0,0,1,1.153,1.153v0a1.179,1.179,0,0,1-1.179,1.179H0a0,0,0,0,1,0,0V0A0,0,0,0,1,0,0Z" transform="translate(0.787)"/><path class="o" d="M.174,0H18.841a.174.174,0,0,1,.174.174v0a.174.174,0,0,1-.174.174H.174A.174.174,0,0,1,0,.174v0A.174.174,0,0,1,.174,0Z" transform="translate(0 1.983)"/><rect class="o" width="19.016" height="0.349" rx="0.174"/></g></g><g transform="translate(408.019 259.432)"><g transform="translate(9.396 0)"><g transform="translate(1.666 0.938)"><path class="c" d="M2538.883,1021.823h-.667v-11.5l6.832-17.431-12.2-9.452.408-.527,12.593,9.757-6.968,17.779Z" transform="translate(-2532.85 -982.915)"/></g><path class="c" d="M2519.207,977.744h0a.681.681,0,0,1-.161-.949l1.016-1.433a.682.682,0,0,1,.95-.162h0a.682.682,0,0,1,.162.95l-1.016,1.433A.682.682,0,0,1,2519.207,977.744Z" transform="translate(-2518.92 -975.074)"/><circle class="c" cx="0.884" cy="0.884" r="0.884" transform="translate(13.229 9.833)"/></g><g transform="translate(0 0.449)"><path class="o" d="M2451.552,990.966c-.033.036-.064.071-.1.1l-.006.008-.094.1c-.914.791-3.937-.627-6.862-3.244s-4.672-5.463-3.987-6.458l.089-.1.007-.008c.03-.036.062-.071.094-.107a7.282,7.282,0,1,1,10.857,9.708Z" transform="translate(-2440.356 -978.829)"/><path class="h" d="M2451.453,1007.969l-.008.007a.3.3,0,0,1-.03.037.574.574,0,0,1-.064.063c-.913.791-3.937-.626-6.861-3.243s-4.673-5.462-3.988-6.457c.019-.025.037-.05.056-.072a.179.179,0,0,1,.035-.033l.006-.008c.622-.588,2.308-.064,4.277,1.211a21.644,21.644,0,0,1,2.609,2.01,23.232,23.232,0,0,1,1.862,1.866C2451.12,1005.365,2452.016,1007.225,2451.453,1007.969Z" transform="translate(-2440.354 -995.727)"/><path class="p" d="M2479.451,1014.04a3,3,0,0,1-4.469-3.876,21.465,21.465,0,0,1,2.609,2.01A22.535,22.535,0,0,1,2479.451,1014.04Z" transform="translate(-2470.461 -1006.417)"/></g><g transform="translate(13.284 29.163)"><path class="c" d="M1.838,0H4.807A1.913,1.913,0,0,1,6.719,1.913v0a0,0,0,0,1,0,0H0a0,0,0,0,1,0,0V1.838A1.838,1.838,0,0,1,1.838,0Z" transform="translate(0 10.352)"/><rect class="c" width="1.411" height="10.684" transform="translate(2.768)"/></g></g><g transform="translate(281.131 287.405)"><path class="h" d="M1379.313,1232.351l5.808-23.365,41.036,10.2Zm7.676-20.26-4.127,16.6,33.288-9.353Z" transform="translate(-1379.313 -1208.987)"/></g><rect class="c" width="1.952" height="12.667" transform="matrix(0.97, 0.241, -0.241, 0.97, 300.954, 292.209)"/><g transform="translate(235.723 210.572)"><path class="q" d="M1193.431,1070.75c-2.815,17.521-5.135,36.4-4.131,46.342.827,2.783,3.385,3.711,5.645,4.072l-1.553,1.694-4.374.25-5.838-2.3a23.528,23.528,0,0,0,.606-3.164c.31-2.337-.773-7.679-.773-7.679s-2.847-18.451-1.227-22.594a16.9,16.9,0,0,0,.95-3.988v0a66.927,66.927,0,0,0-.1-12.561c-.34-4.73-.736-9.312-.288-12.62a239,239,0,0,0,2.064-28.151h11.456s3.246,9.221,1.733,17.128C1196.311,1053.9,1194.811,1062.161,1193.431,1070.75Z" transform="translate(-1159.561 -974.615)"/><path class="r" d="M1192.632,1358.361a66.948,66.948,0,0,0-.1-12.561l8.458-3.42,2.342,3.35C1202.968,1346.17,1196.675,1353.594,1192.632,1358.361Z" transform="translate(-1169.457 -1249.594)"/><path class="q" d="M1468.6,912.051a21.687,21.687,0,0,1,2.227-2.05c.928-.678,3.536-1.357,3.8-.219.118.507-.8,1.627-1.458,2.026s-.762.907-1.463,1.621a4.289,4.289,0,0,1-2.416.75Z" transform="translate(-1412.511 -868.193)"/><path class="s" d="M1096.352,599.029c-.546-1.052,11.907-4.843,12.1,5.545,0,0,23.328-.573,12.189-13.576-3.856-4.5-3.459-8.223-3.344-11.687s-2.4-13.535-11.036-12.521a6.429,6.429,0,0,0-5.083.543C1094.765,570.664,1080.389,602.861,1096.352,599.029Z" transform="translate(-1078.384 -566.505)"/><path class="t" d="M1285.141,805.947a22.807,22.807,0,0,0,2.323,3.512c1.8,2.26,4.586,4.871,8.079,5.386a8.667,8.667,0,0,0,4.8-.779h.006c4.242-1.883,7.432-6.214,7.432-6.214a3.487,3.487,0,0,0-.476-3.422s-8.566,1.927-9.383,1.519-5.575-14.118-6.707-15.841-5-2.617-5-2.617Z" transform="translate(-1250.994 -761.061)"/><path class="u" d="M1302.577,937.789c1.8,2.26,4.587,4.87,8.08,5.386a8.666,8.666,0,0,0,4.8-.779c-.166.022-4.4.546-6.092-2.476-1.723-3.082-3.585-7.978-6.145-6.346C1302.116,934.278,1302.165,936.028,1302.577,937.789Z" transform="translate(-1266.108 -889.391)"/><path class="q" d="M1009.6,1700.228h-3.948c-1.147,0-2.455-.878-2.773-2.95s-2.678-3.2-3.188-4.9c-.35-1.164.477-2,1.262-2.636.358-.294.708-.547.931-.772.8-.811,1.56-4.311,1.56-4.311l4.164,2.191a9.706,9.706,0,0,0-.83,7.085c.529,1.753,1,3.369,2.172,4.376a3.906,3.906,0,0,0,.954.606C1011.724,1699.742,1009.6,1700.228,1009.6,1700.228Z" transform="translate(-999.609 -1550.944)"/><path class="t" d="M1107.708,789.989a58.3,58.3,0,0,0,0,6.788c.145,2.454,2.627,5.742,2.98,6.555.884,2.04,1.881,2.372,1.881,2.372l7.712,1.89,2.711.664,8.55-2.553s3.895-10.87,2.331-16.989a47.038,47.038,0,0,0-3.953-10.368s-9.83-2.557-17.445-.333Z" transform="translate(-1094.694 -751.92)"/><path class="q" d="M1046.209,1026.76s-6.458,8.667-7.06,14.524,5.109,22.073,3.827,27.785c-.952,4.239-6.028,7.6-7.429,18.287-.487,3.712-2.244,11.137-3.864,18.081l3.578,3.512c8.524-19.427,17.338-31.657,17.859-35.952.368-3.04,2.1-19.031,9.087-30.837,1.678-2.834-1.029-14.1-1.029-14.1Z" transform="translate(-1027.846 -971.719)"/><path class="o" d="M1118.046,1049.607c-.949,11.572-2.067,21.318-2.067,21.318a28.527,28.527,0,0,1-13.031,4.1v0h0a25.276,25.276,0,0,1-11.565-2s-1.571-27.945-.571-32.4,5.429-10.577,5.429-10.577l19.923.77S1119,1038.034,1118.046,1049.607Z" transform="translate(-1079.609 -974.616)"/><path class="v" d="M1165.04,1013.032a8.876,8.876,0,0,1-5.077,1.413c-4.034.081-14.028-1.029-14.028-1.029a8.278,8.278,0,0,0-.426,2.551s12.207,3.079,19.28.449A4.47,4.47,0,0,0,1165.04,1013.032Z" transform="translate(-1128.061 -959.633)"/><g transform="translate(31.03 54.121)"><path class="e" d="M1259.082,1021.155a1.854,1.854,0,1,1,1.84,2.083A1.975,1.975,0,0,1,1259.082,1021.155Zm.61,0a1.251,1.251,0,1,0,1.231-1.473A1.371,1.371,0,0,0,1259.692,1021.155Z" transform="translate(-1259.082 -1019.072)"/></g><rect class="s" width="16.583" height="22.7" transform="matrix(-0.754, -0.657, 0.657, -0.754, 17.24, 66.673)"/><path class="q" d="M1166.265,1033.3s4.582.536,4.568,1.624-1.142,3.322-1.708,3.422-3.729-3.022-3.729-3.022Z" transform="translate(-1145.569 -977.48)"/><path class="t" d="M1047.525,782.645s-6.118.429-8.463,6.129-6.794,15.272-6.794,16.883,2.485,6.574,15.833,9.428c0,0,1.38-1.452,1.3-2.6,0,0-8.333-7.157-8.31-7.993.043-1.582,1.366-3.671,8.682-10.989C1051.759,791.512,1047.525,782.645,1047.525,782.645Z" transform="translate(-1028.363 -756.797)"/><g transform="translate(53.247 5.627)"><path class="h" d="M1446.82,668.12l18.333-53.885c.085-.245.2-.48-.047-.569l-.223-.081c-.25-.091-.323.07-.414.32l-19.542,53.11a1.027,1.027,0,0,0,.548,1.29l.453.2A.659.659,0,0,0,1446.82,668.12Z" transform="translate(-1444.865 -613.56)"/></g><path class="q" d="M1479.714,925.431a8.756,8.756,0,0,0,1.714-.258c.693-.182,1.584-.5,1.584-.5.523.381-1.295,1.421-1.759,2.131-.379.58-.809.747-1.855.972Z" transform="translate(-1422.021 -881.837)"/><path class="s" d="M1200.651,1791.923c2.549-.315,1.876.335,5.449.356s4.795-1.169,4.963-1.68c.151-.454-1.573-.823-3.417-1.256l-.066.046a9.838,9.838,0,0,1-5.19.968c-2.4-.221-4.854-1.2-6.51-1.37a6.259,6.259,0,0,0-.156,1.659C1195.854,1792.24,1198.1,1792.239,1200.651,1791.923Z" transform="translate(-1172.261 -1642.794)"/><path class="s" d="M1009.6,1737.652h-3.948c-1.147,0-2.455-.878-2.773-2.95s-2.678-3.2-3.188-4.9c-.35-1.164.477-2,1.262-2.636a20.526,20.526,0,0,1,2.289,5.263c1.073,3.495,3.645,3.594,5.708,3.3a3.956,3.956,0,0,0,.954.606C1011.724,1737.166,1009.6,1737.652,1009.6,1737.652Z" transform="translate(-999.609 -1588.368)"/><path class="q" d="M1167.788,717.043a3.688,3.688,0,0,0,2.692-2.342,18.8,18.8,0,0,0,.914-6.234l.387.076,6.509,1.289s-.148,2.049-.152,3.978v.048a3.743,3.743,0,0,0,2.7,3.62c.821.237-3.921,6.482-4.464,6.359C1175.248,723.583,1167.395,717.131,1167.788,717.043Z" transform="translate(-1147.663 -691.491)"/><path class="w" d="M1207.8,710.395s-.148,2.049-.152,3.979c-3.643-.1-5.568-3.426-6.357-5.268Z" transform="translate(-1177.169 -692.053)"/><path class="q" d="M1201.688,628.1s-8.619.142-8.624-5.226-1.122-8.966,4.38-9.283,6.573,1.73,7.012,3.521S1203.929,627.926,1201.688,628.1Z" transform="translate(-1169.843 -607.932)"/><path class="s" d="M1180.968,604.7s-2.36,6.3-5.981,7.23-5.193-.039-5.193-.039a10.254,10.254,0,0,0,3.355-6.058S1179.188,601.7,1180.968,604.7Z" transform="translate(-1149.442 -599.173)"/><path class="s" d="M1258.335,609.45a5.346,5.346,0,0,1,2.47,1.93,8.679,8.679,0,0,1,1.166,4.929s1.777-4.281-.22-6.7C1259.631,607.038,1258.335,609.45,1258.335,609.45Z" transform="translate(-1227.394 -603.41)"/><path class="e" d="M1251.814,705.539s.15.633,1.723.535c0,0,1.322-.082,1.281-.777A4.254,4.254,0,0,0,1251.814,705.539Z" transform="translate(-1221.653 -688.556)"/><path class="x" d="M1171.379,772.422s-5.829-6.227-6.047-8.772a8.484,8.484,0,0,0-3.235,2.114s1.4,3.51,3.074,4.667a10.607,10.607,0,0,0,2.176-.566,18.5,18.5,0,0,1-1.09,1.612A8.3,8.3,0,0,0,1171.379,772.422Z" transform="translate(-1142.666 -740.074)"/><path class="x" d="M1241.759,765.641s2.3,4.2-2.043,8.533a7.423,7.423,0,0,0,4.125-2.442,3.957,3.957,0,0,0-.8-1.27,1.392,1.392,0,0,1,1.333.152,9.032,9.032,0,0,0,0-2.939C1244.058,766.988,1242.434,765.619,1241.759,765.641Z" transform="translate(-1211.002 -741.826)"/><path class="s" d="M1236.085,833.8a.434.434,0,1,1,.434.434A.434.434,0,0,1,1236.085,833.8Z" transform="translate(-1207.805 -801.455)"/><path class="s" d="M1255.45,885.276a.434.434,0,1,1,.435.434A.434.434,0,0,1,1255.45,885.276Z" transform="translate(-1224.854 -846.773)"/><path class="s" d="M1259.082,945.641a.434.434,0,1,1,.434.434A.434.434,0,0,1,1259.082,945.641Z" transform="translate(-1228.052 -899.919)"/><path class="v" d="M1209.868,1193.58c-.949,11.572-2.067,21.319-2.067,21.319a28.527,28.527,0,0,1-13.031,4.1,21.119,21.119,0,0,0,7.691-5.487C1205.726,1209.689,1209.868,1193.58,1209.868,1193.58Z" transform="translate(-1171.431 -1118.589)"/></g><g class="y" transform="translate(315.849 199.717)"><path class="e" d="M1719.291,476.095H1720l1.912,4.376h-.807l-.44-1.049h-2.054l-.448,1.049h-.782Zm1.093,2.651-.751-1.738-.745,1.738Z" transform="translate(-1711.669 -476.051)"/><path class="e" d="M1793.427,476.354h1.949a1.568,1.568,0,0,1,1.135.385.984.984,0,0,1,.292.733,1.034,1.034,0,0,1-.621.968,1.069,1.069,0,0,1,.863,1.068c0,.776-.639,1.192-1.607,1.192h-2.011Zm1.794,1.831c.49,0,.82-.192.82-.6,0-.341-.273-.553-.764-.553h-1.1v1.155Zm.224,1.837c.521,0,.837-.2.837-.608,0-.366-.291-.583-.893-.583h-1.21v1.192Z" transform="translate(-1778.621 -476.279)"/><path class="e" d="M1861.22,477.978a2.2,2.2,0,0,1,2.241-2.247,2.266,2.266,0,0,1,1.7.677l-.491.565a1.727,1.727,0,0,0-1.217-.54,1.55,1.55,0,0,0,0,3.091,1.7,1.7,0,0,0,1.248-.565l.49.5a2.242,2.242,0,0,1-1.763.77A2.189,2.189,0,0,1,1861.22,477.978Z" transform="translate(-1838.307 -475.731)"/><path class="e" d="M1687.869,557.921h1.621a2.177,2.177,0,1,1,0,4.346h-1.621Zm1.621,3.65a1.478,1.478,0,1,0,0-2.955h-.857v2.955Z" transform="translate(-1685.687 -548.092)"/><path class="e" d="M1760.387,557.921h3.222v.683h-2.458v1.13h2.18v.683h-2.18v1.167h2.49v.683h-3.253Z" transform="translate(-1749.533 -548.092)"/><path class="e" d="M1827.09,557.921h3.234v.7h-2.471V559.8h2.191v.7h-2.191v1.769h-.763Z" transform="translate(-1808.259 -548.092)"/><path class="e" d="M1891.457,559.546a2.214,2.214,0,0,1,2.24-2.247,2.346,2.346,0,0,1,1.67.59l-.485.577a1.7,1.7,0,0,0-1.216-.465,1.473,1.473,0,0,0-1.408,1.546,1.451,1.451,0,0,0,1.476,1.552,1.771,1.771,0,0,0,1.049-.329v-.814h-1.111v-.664h1.85v1.825a2.772,2.772,0,0,1-1.813.677A2.159,2.159,0,0,1,1891.457,559.546Z" transform="translate(-1864.928 -547.545)"/><path class="e" d="M1669.624,639.489h.763V641.3h2.073v-1.806h.764v4.346h-.764V642h-2.073v1.832h-.763Z" transform="translate(-1669.624 -619.906)"/><path class="e" d="M1741.362,639.489h.764v4.346h-.764Z" transform="translate(-1732.783 -619.906)"/><path class="e" d="M1785.8,643.2l.5-.516a1.081,1.081,0,0,0,.876.509c.409,0,.688-.273.688-.851v-2.849h.783v2.868a1.575,1.575,0,0,1-.4,1.155,1.453,1.453,0,0,1-1.056.385A1.637,1.637,0,0,1,1785.8,643.2Z" transform="translate(-1771.903 -619.906)"/><path class="e" d="M1850.319,639.489h.763v2.185l2.067-2.185h.938l-1.806,1.868,1.887,2.477h-.925l-1.484-1.956-.677.7v1.26h-.763Z" transform="translate(-1828.71 -619.906)"/><path class="e" d="M1919.877,639.489h.763v3.65h2.285v.7h-3.048Z" transform="translate(-1889.95 -619.906)"/><path class="e" d="M1680.5,721.056h.814l1.322,2.055,1.323-2.055h.813V725.4h-.763v-3.116l-1.373,2.049h-.025l-1.359-2.036v3.1h-.751Z" transform="translate(-1679.197 -691.718)"/><path class="e" d="M1757.478,721.056h.708l2.328,3v-3h.751V725.4h-.639l-2.4-3.091V725.4h-.751Z" transform="translate(-1746.972 -691.718)"/><path class="e" d="M1828.8,722.681a2.273,2.273,0,1,1,2.267,2.248A2.227,2.227,0,0,1,1828.8,722.681Zm3.744,0a1.489,1.489,0,0,0-1.477-1.546,1.472,1.472,0,0,0-1.465,1.546,1.489,1.489,0,0,0,1.477,1.546A1.471,1.471,0,0,0,1832.546,722.681Z" transform="translate(-1809.766 -691.17)"/><path class="e" d="M1906.459,721.056h1.713a1.464,1.464,0,0,1,1.652,1.465c0,.975-.783,1.484-1.739,1.484h-.863v1.4h-.763Zm1.651,2.26c.578,0,.937-.323.937-.788,0-.509-.365-.776-.937-.776h-.888v1.564Z" transform="translate(-1878.136 -691.718)"/><path class="e" d="M1690.652,806.086a2.243,2.243,0,0,1-1.322.409,2.251,2.251,0,1,1,1.837-.912l.5.422-.49.546Zm-.565-.5-.744-.633.49-.559.751.683a1.567,1.567,0,0,0-1.254-2.371,1.472,1.472,0,0,0-1.466,1.546,1.489,1.489,0,0,0,1.478,1.546A1.378,1.378,0,0,0,1690.087,805.583Z" transform="translate(-1684.979 -762.983)"/><path class="e" d="M1764.721,802.623h1.936c1.019,0,1.614.546,1.614,1.384a1.3,1.3,0,0,1-1.036,1.316l1.173,1.645h-.9l-1.081-1.515h-.943v1.515h-.763Zm1.88,2.155c.547,0,.894-.286.894-.739s-.336-.72-.9-.72h-1.111v1.459Z" transform="translate(-1753.348 -763.531)"/><path class="e" d="M1831.736,805.879l.459-.546a2,2,0,0,0,1.373.565c.472,0,.769-.217.769-.558,0-.311-.174-.478-.98-.671-.925-.217-1.447-.49-1.447-1.3a1.329,1.329,0,0,1,1.483-1.26,2.406,2.406,0,0,1,1.577.547l-.41.577a1.972,1.972,0,0,0-1.179-.447c-.447,0-.708.229-.708.528,0,.335.2.484,1.031.682.918.224,1.4.553,1.4,1.285,0,.813-.64,1.3-1.552,1.3A2.675,2.675,0,0,1,1831.736,805.879Z" transform="translate(-1812.35 -763.075)"/><path class="e" d="M1898.1,803.331h-1.377v-.708h3.525v.708h-1.378v3.638h-.771Z" transform="translate(-1869.568 -763.531)"/><path class="e" d="M1710.24,886.693v-2.5H1711v2.471c0,.807.416,1.241,1.1,1.241s1.093-.41,1.093-1.21v-2.5h.763v2.465a1.735,1.735,0,0,1-1.869,1.949A1.713,1.713,0,0,1,1710.24,886.693Z" transform="translate(-1705.383 -835.344)"/><path class="e" d="M1778.917,884.191h.844l1.31,3.34,1.3-3.34h.825l-1.806,4.376h-.671Z" transform="translate(-1765.847 -835.344)"/><path class="e" d="M1850.085,884.1h.826l1.036,3.222,1.068-3.234h.645l1.068,3.234,1.037-3.222h.8l-1.514,4.377h-.659l-1.067-3.123-1.068,3.123h-.657Z" transform="translate(-1828.505 -835.252)"/><path class="e" d="M1722,967.894l-1.521-2.136h.9l1.081,1.558,1.086-1.558h.875l-1.515,2.123,1.577,2.222h-.9l-1.142-1.646-1.149,1.646h-.875Z" transform="translate(-1714.342 -907.157)"/><path class="e" d="M1790.922,968.39l-1.725-2.632h.9l1.217,1.924,1.229-1.924h.876l-1.726,2.613V970.1h-.77Z" transform="translate(-1774.897 -907.157)"/><path class="e" d="M1860.727,969.538l2.564-3.1h-2.484v-.676h3.477v.564l-2.564,3.1h2.564v.677h-3.557Z" transform="translate(-1837.873 -907.157)"/></g><g transform="translate(406.288 284.737)"><g transform="translate(0.184 1.872)"><rect class="m" width="0.782" height="9.211" transform="translate(0 1.663) rotate(-9.131)"/><path class="h" d="M2427.554,1202.329l-.128,1.663.77-.124Z" transform="translate(-2427.425 -1202.329)"/></g><g transform="translate(6.866 2.656)"><rect class="m" width="0.782" height="9.211" transform="translate(1.682 1.523) rotate(10.523)"/><path class="g" d="M2498.042,1208.885l-.681,1.523.769.143Z" transform="translate(-2495.679 -1208.885)"/></g><g transform="translate(5.892)"><rect class="m" width="0.781" height="9.211" transform="translate(1.682 1.523) rotate(10.523)"/><path class="g" d="M2489.895,1186.674l-.681,1.523.769.143Z" transform="translate(-2487.532 -1186.674)"/></g><g transform="translate(0 7.251)"><rect class="v" width="6.156" height="8.872" transform="translate(3.078)"/><rect class="o" width="6.156" height="8.872"/></g></g><g transform="translate(165.244 265.021)"><g transform="translate(3.63 17.322)"><path class="b" d="M457.4,1174s3.035-3.542.187-5.791a8.075,8.075,0,0,0-3.777-1.157s2.4,4.03,1.626,4.432-2.355-4.685-2.355-4.685-4.734-.459-6.257.273c0,0,4.047,3.312,3.195,3.509s-5.224-3.054-5.224-3.054-4.406.75-4.171,3.438,1.753,3.518,2.421,3.446,4.571-1.561,4.656-1.014-2.265,2.333-3.91,2.417c0,0,3.106,3.426,5.171,2.438s2.241-2.557,3.528-3.144,2.386-.587,1.854.013-2.86,1.182-3.6,2.483-1.4,2.181.74,1.859,5.608-1.885,5.76-3.674Z" transform="translate(-440.617 -1166.658)"/><g transform="translate(2.174 4.36)"><path class="b" d="M458.8,1203.139s11.968-.461,14.611,2.962a8.66,8.66,0,0,0,2.383,3.345l.28.764s-2.074-2.186-2.816-2.319C473.255,1207.89,474.416,1203.65,458.8,1203.139Z" transform="translate(-458.797 -1203.118)"/><path class="b" d="M595.925,1253.805a7.514,7.514,0,0,1,2.747,5.294l-.466.042s-.821-3.51-2.3-4.883S595.925,1253.805,595.925,1253.805Z" transform="translate(-578.932 -1247.479)"/></g></g><g transform="translate(27.853 7.707)"><path class="z" d="M646.344,1098.766s-4.829-2.7-2.575-6.373a9.593,9.593,0,0,1,3.733-2.833s-1.029,5.472,0,5.6.709-6.18.709-6.18,5.086-2.447,7.081-2.253c0,0-3.154,5.344-2.124,5.215s4.571-5.537,4.571-5.537,5.214-.966,6.052,2.124-.515,4.635-1.288,4.829-5.73.128-5.6.772,3.476,1.674,5.343,1.095c0,0-2.06,5.085-4.764,4.828s-3.541-1.931-5.215-2.06-2.9.322-2.06.773,3.67.147,5.022,1.3,2.446,1.857-.064,2.372-7.017.193-7.919-1.738Z" transform="translate(-643.17 -1086.263)"/><g transform="translate(0.624 3.233)"><path class="b" d="M675.3,1113.3s-13.519,4.378-15.064,9.27a10.272,10.272,0,0,1-1.288,4.7v.966s1.417-3.283,2.189-3.734C661.135,1124.5,658.109,1120.25,675.3,1113.3Z" transform="translate(-657.683 -1113.297)"/><path class="b" d="M649.652,1225.69a8.918,8.918,0,0,0-.9,7.021l.536-.144s-.52-4.245.57-6.38S649.652,1225.69,649.652,1225.69Z" transform="translate(-648.389 -1211.72)"/></g></g><g transform="translate(0 0)"><path class="z" d="M433.607,1038.294s6.365-3.564,3.394-8.4c0,0-2.376-2.97-4.922-3.734,0,0,1.358,7.214,0,7.383s-.933-8.146-.933-8.146-6.7-3.225-9.335-2.97c0,0,4.158,7.043,2.8,6.874s-6.025-7.3-6.025-7.3-6.874-1.273-7.977,2.8.679,6.11,1.7,6.364,7.553.17,7.383,1.019-4.583,2.206-7.043,1.443c0,0,2.715,6.7,6.28,6.365s4.667-2.546,6.874-2.716,3.818.424,2.715,1.018-4.837.2-6.619,1.71-3.225,2.448.085,3.127,9.25.255,10.438-2.291Z" transform="translate(-410.262 -1021.813)"/><g transform="translate(3.488 4.262)"><path class="b" d="M439.428,1057.449s17.821,5.77,19.858,12.219a13.539,13.539,0,0,0,1.7,6.2v1.273s-1.867-4.328-2.885-4.921C458.1,1072.215,462.086,1066.614,439.428,1057.449Z" transform="translate(-439.428 -1057.449)"/><path class="b" d="M613.4,1205.6a11.753,11.753,0,0,1,1.182,9.254l-.707-.19s.686-5.6-.752-8.41S613.4,1205.6,613.4,1205.6Z" transform="translate(-591.848 -1187.19)"/></g></g><path class="v" d="M503.022,1276.686a12.467,12.467,0,1,0,24.935,0Z" transform="translate(-491.929 -1246.206)"/><path class="o" d="M571.644,1276.686c0,4.672,1.119,9.429,4.921,11.563.632.356,2.749-.029,3.443.212a12.472,12.472,0,0,0,8.364-11.775Z" transform="translate(-552.345 -1246.206)"/><path class="v" d="M501.581,1374.92H526.86a1.537,1.537,0,0,0-1.538-1.538h-22.2A1.538,1.538,0,0,0,501.581,1374.92Z" transform="translate(-490.66 -1331.338)"/><path class="o" d="M600.623,1374.92h13.435a1.538,1.538,0,0,0-1.538-1.538H602.161A1.538,1.538,0,0,0,600.623,1374.92Z" transform="translate(-577.858 -1331.338)"/><rect class="m" width="25.628" height="0.382" transform="translate(36.437 30.862) rotate(180)"/></g></g></svg>