<svg xmlns="http://www.w3.org/2000/svg" width="13.356" height="14.217" viewBox="0 0 13.356 14.217"><defs><style>.a{fill:#26324a;stroke:#26324a;stroke-width:0.2px;}</style></defs><g transform="translate(-9.255 -959.003)"><path class="a" d="M15.905,959.12a.162.162,0,0,0-.137.162v.931a.162.162,0,0,0,0,.051v.961l-.931,1.254H9.5a.162.162,0,0,0-.147.162v2.913a.162.162,0,0,0,0,.025.161.161,0,0,0,0,.02v7.359a.162.162,0,0,0,.162.162H22.349a.162.162,0,0,0,.162-.162v-7.349a.161.161,0,0,0,0-.03c0-.005,0-.01,0-.015V962.64a.162.162,0,0,0-.162-.162H17.028l-.936-1.259v-.86l1.578-.511a.162.162,0,0,0-.015-.314l-1.684-.406a.161.161,0,0,0-.066-.005Zm.187.364.936.233-.936.3Zm-.162,2.059.87,1.163.01.015v.005l.01.01,2.19,2.938a.126.126,0,0,0,.132.066h3.045V972.8H17.63v-3.819q0-.008,0-.015c0-.005,0-.01,0-.015s0-.012-.005-.015l-.005-.015a1.4,1.4,0,0,0-.288-.551,1.75,1.75,0,0,0-1.33-.572.162.162,0,0,0-.061-.01l-.015.005a1.727,1.727,0,0,0-1.386.566,1.436,1.436,0,0,0-.288.551.164.164,0,0,0-.01.03l-.005.01a.161.161,0,0,0,0,.03V972.8H9.679V965.74h3.075a.162.162,0,0,0,.1-.061l.005-.005,2.19-2.939a.157.157,0,0,0,.015-.025l.87-1.168ZM9.679,962.8H14.59l-1.942,2.615H9.679Zm7.6,0h4.911v2.615H19.218Zm-1.34,1.613a.958.958,0,1,0,.956.956A.964.964,0,0,0,15.936,964.416Zm0,.319a.637.637,0,1,1-.637.637A.635.635,0,0,1,15.936,964.734Zm-5.346,2.074a.162.162,0,0,0-.147.162v1.108a.162.162,0,0,0,.162.162h1.254a.162.162,0,0,0,.162-.162V966.97a.162.162,0,0,0-.162-.162H10.59Zm8.608,0a.162.162,0,0,0-.147.162v1.108a.162.162,0,0,0,.162.162h1.254a.162.162,0,0,0,.162-.162V966.97a.162.162,0,0,0-.162-.162H19.2Zm-8.431.324H11.7v.784h-.931Zm8.608,0h.931v.784h-.931Zm-3.581.986-.025,4.678H14.56v-3.8a1.035,1.035,0,0,1,.228-.43,1.316,1.316,0,0,1,1.006-.445Zm.324.005a1.34,1.34,0,0,1,.966.45,1,1,0,0,1,.223.42v3.8H16.093l.025-4.673Zm-5.513,1.664a.162.162,0,0,0-.162.162v1.108a.162.162,0,0,0,.162.162H11.86a.162.162,0,0,0,.162-.162v-1.108a.162.162,0,0,0-.162-.162Zm8.608,0a.162.162,0,0,0-.162.162v1.108a.162.162,0,0,0,.162.162h1.254a.162.162,0,0,0,.162-.162v-1.108a.162.162,0,0,0-.162-.162Zm-8.446.324H11.7v.784h-.931Zm8.608,0h.931v.784h-.931Z"/></g></svg>