<svg xmlns="http://www.w3.org/2000/svg" width="271.134" height="244.142" viewBox="0 0 271.134 244.142"><defs><style>.a{fill:#e9f5e7;}.b,.c{fill:#b0c4cb;}.b{opacity:0.5;}.d{fill:#91adb7;}.e{fill:#2e3951;}.f{fill:#76bf4e;}.g,.p,.q{fill:#476488;}.g{opacity:0.25;}.h{fill:#d3e3eb;}.i{fill:#e3bd78;}.j,.r{fill:#2c3c4d;}.k{fill:#1f2e40;}.l,.n{fill:#d4904f;}.m{fill:#8ba6af;}.n{opacity:0.67;}.o{fill:#eaf5c8;}.p{opacity:0.29;}.r{opacity:0.48;}.s{fill:#29354d;}.t{fill:#293951;}</style></defs><path class="a" d="M553.236,345.759H405.142c-33.008-22.753-54.587-60.277-54.587-102.748,0-69.418,57.591-135.668,128.634-135.668s128.634,66.25,128.634,135.668C607.823,285.483,586.242,323.006,553.236,345.759Z" transform="translate(-343.622 -107.343)"/><path class="b" d="M343.172,361.292c0-2.951,60.7-5.344,135.567-5.344s135.567,2.393,135.567,5.344-60.7,5.345-135.567,5.345S343.172,364.245,343.172,361.292Z" transform="translate(-343.172 -122.496)"/><g transform="translate(152.491 88.805)"><rect class="c" width="6.167" height="58.978" transform="translate(27.312 85.696)"/><rect class="d" width="6.167" height="8.291" transform="translate(27.312 85.696)"/><path class="c" d="M3.805,0H55.048a3.805,3.805,0,0,1,3.805,3.805V5.412a0,0,0,0,1,0,0H0a0,0,0,0,1,0,0V3.805A3.805,3.805,0,0,1,3.805,0Z" transform="translate(0 144.694)"/><path class="c" d="M449.633,287.667H406.894c15.552-5.586,9.536-58.2,6.661-78.141a6.667,6.667,0,0,1,6.6-7.614h28.467a11.662,11.662,0,0,1,11.559,10.066c2.5,18.121,6.434,55.7-1.363,70.243A10.409,10.409,0,0,1,449.633,287.667Z" transform="translate(-404.617 -201.912)"/></g><g transform="translate(45.844 55.926)"><path class="e" d="M523.277,166.9H574.4a4.747,4.747,0,0,1,4.747,4.747v23.035a4.746,4.746,0,0,1-4.747,4.746h-3.57V205a.893.893,0,0,1-1.49.663l-6.913-6.233H523.277a4.746,4.746,0,0,1-4.746-4.746V171.646A4.746,4.746,0,0,1,523.277,166.9Z" transform="translate(-518.531 -166.899)"/><g transform="translate(15.789 14.523)"><path class="f" d="M535.345,184.455a2.09,2.09,0,1,0,2.09-2.09A2.09,2.09,0,0,0,535.345,184.455Z" transform="translate(-510.484 -182.365)"/><path class="f" d="M549.039,184.455a2.09,2.09,0,1,0,2.09-2.09A2.09,2.09,0,0,0,549.039,184.455Z" transform="translate(-537.038 -182.365)"/><ellipse class="f" cx="2.09" cy="2.09" rx="2.09" ry="2.09" transform="translate(0)"/></g></g><g transform="translate(217.556 106.527)"><g transform="translate(0.443 0)"><path class="f" d="M380.816,232.071c0-5.638,3.982-11.287,8.893-11.287s8.893,5.649,8.893,11.287-3.982,10.207-8.893,10.207S380.816,237.709,380.816,232.071Z" transform="translate(-380.816 -220.784)"/><path class="g" d="M396.748,220.784a6.564,6.564,0,0,1,2.283.429c-3.8,1.4-6.611,6.127-6.611,10.858s2.808,8.7,6.611,9.855a7.8,7.8,0,0,1-2.283.352c-4.911,0-8.893-4.57-8.893-10.207S391.837,220.784,396.748,220.784Z" transform="translate(-387.855 -220.784)"/></g><g transform="translate(0 16.486)"><path class="h" d="M398.955,239.812l-1.593,14.429a3.56,3.56,0,0,1-3.538,3.169h-9.2a3.56,3.56,0,0,1-3.538-3.169l-1.594-14.429a1.326,1.326,0,0,1,1.318-1.472h16.826A1.326,1.326,0,0,1,398.955,239.812Z" transform="translate(-379.484 -238.34)"/><path class="c" d="M397.638,240.5H380.811a1.306,1.306,0,0,0-1.162.739l-.157-1.424a1.326,1.326,0,0,1,1.318-1.472h16.827a1.326,1.326,0,0,1,1.318,1.472l-.158,1.424A1.3,1.3,0,0,0,397.638,240.5Z" transform="translate(-379.484 -238.34)"/><path class="c" d="M389.868,238.34H395.7a1.326,1.326,0,0,0-1.318,1.472l1.594,14.429a3.56,3.56,0,0,0,3.538,3.169h-5.834a3.56,3.56,0,0,1-3.538-3.169l-1.594-14.429A1.326,1.326,0,0,1,389.868,238.34Z" transform="translate(-388.541 -238.34)"/></g></g><g transform="translate(79.894 57.323)"><g transform="translate(36.176 87.99)"><g transform="translate(0 6.493)"><path class="i" d="M488.138,346.638l.6,4.17-3.173,4.06-8.048-3.94-.872-3.814,10.018-1.514Z" transform="translate(-459.02 -273.67)"/><path class="j" d="M498.088,360.4l-.831-1.028a.387.387,0,0,0-.6-.008l-.834.978a1.739,1.739,0,0,1-1.354.611l-18.7-.318a1,1,0,0,1-.032-1.413c2.74-2.767,17.49-7.548,18.224-7.951s5.245,3.1,11.221-.121a63.307,63.307,0,0,1,1.109,7.714,2.136,2.136,0,0,1-2.16,2.254l-4.745-.081A1.712,1.712,0,0,1,498.088,360.4Z" transform="translate(-475.466 -274.008)"/><path class="j" d="M490.474,271.5s7.764,8.583-6.453,17.91c-9.974,6.544-17.834,4.545-24.094,8.512a5.269,5.269,0,0,0-2.687,4.049l-.318,40.124-.757.376a13.788,13.788,0,0,1-11.99.132h0l-5.662-45.782c-.2-3.155,1.5-5.816,3.457-8.3C452.84,274.687,472.089,270,476.962,269.2,483.3,268.163,490.474,271.5,490.474,271.5Z" transform="translate(-427.04 -269.002)"/></g><g transform="translate(31.098)"><path class="i" d="M455.144,346.635l.661,4.162-3.117,4.1-8.1-3.829-.924-3.8,10-1.651Z" transform="translate(-426.205 -267.178)"/><path class="j" d="M464.994,360.479l-.845-1.017a.387.387,0,0,0-.6,0l-.821.99a1.74,1.74,0,0,1-1.346.629l-18.7-.063a1,1,0,0,1-.052-1.412c2.7-2.8,17.386-7.787,18.114-8.2s5.287,3.03,11.218-.274a63.263,63.263,0,0,1,1.214,7.7,2.134,2.134,0,0,1-2.128,2.283l-4.746-.016A1.711,1.711,0,0,1,464.994,360.479Z" transform="translate(-442.366 -267.515)"/><path class="j" d="M462.172,263.593s9.406,10.485-4.2,22.329c-9.543,8.308-18.107,4.755-24.117,9.823a5.593,5.593,0,0,0-2.243,4.642l4.3,40.813-.324.21a12.931,12.931,0,0,1-12.543.855h0l-10.637-43.008c-.666-3.287.745-6.328,2.442-9.221,9.439-16.093,24.261-25.686,29.266-27.225C450.625,260.81,462.172,263.593,462.172,263.593Z" transform="translate(-406.235 -262.087)"/></g><path class="k" d="M448.845,296.785a18.561,18.561,0,0,1,2.192-.762,18.711,18.711,0,0,1,2.389-5.554,73.653,73.653,0,0,1,16.162-18.946c-3.409-.579-5.144-1.309-6.088-2.268a64.093,64.093,0,0,0-10.211,2.77C448.663,279.755,448.678,292.311,448.845,296.785Z" transform="translate(-413.71 -262.524)"/></g><path class="h" d="M433.147,204.594s13.567-1.809,19.206,8.763,14.059,52.016,6.7,53.276c-3.26.559-11.953,2.746-21.586,2.042-13.243-.969-16.122-2.188-17.078-4.707l-8.437-38.622a16.334,16.334,0,0,1,6.405-13.636A46.011,46.011,0,0,1,433.147,204.594Z" transform="translate(-335.264 -170.586)"/><path class="c" d="M491.4,223.085s-.176,23.259-7.488,24.669-26.784.969-26.784.969v7.4h41.76Z" transform="translate(-414.665 -171.72)"/><path class="l" d="M444.2,210.788l-1.645-8.227,10.669-8.128,2.044,9.7S451.9,218.939,444.2,210.788Z" transform="translate(-357.347 -169.974)"/><path class="j" d="M445.849,185.295s5.583,2.716,13.761-2.268c0,0,1.9,3.41,7.377,6.456,0,0,2.848-4.775,4.488-1.2a7.567,7.567,0,0,1,.754,2.92c5.133-6.63,1.514-15.365-3.273-20.074-4.536-4.469-14.353-2.692-20.486-.227-6.509,2.621-7.706-1.938-7.706-1.938C432.537,180.555,445.849,185.295,445.849,185.295Z" transform="translate(-372.611 -168.386)"/><path class="i" d="M462.469,190.43s2.848-4.773,4.487-1.2c1.989,4.339-.255,7.062-2.948,7.062,0,0-2.138,11.286-12.508,10.489s-11.867-17.451-10.172-20.543c0,0,5.585,2.718,13.761-2.268C455.089,183.974,456.984,187.389,462.469,190.43Z" transform="translate(-368.09 -169.336)"/><g transform="translate(0 47.494)"><path class="h" d="M489.614,218.963H532.9a4.49,4.49,0,0,1,4.4,3.592l5.763,28.246H490.611l-5.4-26.451A4.489,4.489,0,0,1,489.614,218.963Z" transform="translate(-485.123 -218.963)"/><path class="m" d="M2.275,0H73.538a2.275,2.275,0,0,1,2.275,2.275V2.69a2.276,2.276,0,0,1-2.276,2.276H2.275A2.275,2.275,0,0,1,0,2.69V2.275A2.275,2.275,0,0,1,2.275,0Z" transform="translate(3.519 31.841)"/><path class="c" d="M486.648,252.87h52.859a2.136,2.136,0,0,0-2.136,2.137v.692a2.136,2.136,0,0,0,2.136,2.136H486.648a2.137,2.137,0,0,1-2.136-2.136v-.692A2.137,2.137,0,0,1,486.648,252.87Z" transform="translate(-480.993 -221.03)"/></g><path class="h" d="M411.752,248.7c8.428-.981,32.07-3.393,36.122-3.813,5.11-.529-5.991-21.145-7.224-28.193s4.14-7.312,4.14-7.312c3.034-.379,6.344,0,9.163,4.27,5.771,8.739,12.2,34.286,8.81,40.592a2.282,2.282,0,0,1-2.015,1.193h-49Z" transform="translate(-336.865 -170.878)"/><path class="c" d="M425.3,248.7s30.44-2.095,37-2.977c5.091-.683-5.522-21.806-6.755-28.853s4.23-6.755,4.23-6.755a13.087,13.087,0,0,1,4.752.446,8.807,8.807,0,0,0-6.195-1.184s-5.371.268-4.137,7.316,10.748,27.224,7.533,28.017C457.774,245.684,433.729,247.719,425.3,248.7Z" transform="translate(-350.411 -170.878)"/><path class="i" d="M479.506,258.154H468.152a1.073,1.073,0,0,1-.9-1.658c1.063-1.634,2.743-3.941,3.973-4.333a53.957,53.957,0,0,1,8.281.187Z" transform="translate(-404.618 -173.486)"/><path class="n" d="M453.533,186.389a9.072,9.072,0,0,0,2.572.642c.137.768.385,2.245.518,3.645.191,2-.809,8.179-.191,8.227a17.909,17.909,0,0,0,1.9-.048s.951,8.941,9.892,7.514l.232-.035a11.3,11.3,0,0,1-4.755.6C453.334,206.133,451.838,189.48,453.533,186.389Z" transform="translate(-380.295 -169.484)"/></g><g transform="translate(0.38 137.891)"><g transform="translate(0 8.808)"><path class="o" d="M610.994,321s-14.261-7.074-10.382-17.8,6.275-11.181-1.141-17.228-18.139-21.221-4.564-22.362,12.892,16.885,24.187,19.4S636.55,332.754,610.994,321Z" transform="translate(-588.399 -263.564)"/><path class="g" d="M629.3,322.066c-2.739,1.27-6.421,1.146-11.225-1.063,0,0-14.261-7.074-10.382-17.8s6.275-11.181-1.141-17.228-18.14-21.221-4.564-22.362a12.477,12.477,0,0,1,3.619.193c-3.82,1.588-7.621,4.736-2.709,10.562,8.18,9.7,12.555,13.126,11.6,19.4C613.58,299.9,614.107,313.794,629.3,322.066Z" transform="translate(-595.485 -263.564)"/></g><g transform="translate(33.266 23.799)"><path class="o" d="M568.331,321.634s12.55-.456,11.866-9.47-1.034-9.366,6.845-12.208c13.919-5.019,2.9-31.754-8.442-14.945-7.872,11.666-11.295,9.041-16.429,9.954S545.855,325.627,568.331,321.634Z" transform="translate(-554.815 -279.528)"/><path class="p" d="M560.341,294.965c5.134-.913,8.556,1.711,16.429-9.955,5.937-8.8,11.778-5.661,14.008.043-3.34-1.024-8.413-1.638-9.045,3.8-.82,7.051-17.318,18.631-16.981,33.025-.219.023-.43.039-.642.054-2.4-6.329-5.569-14.54-8.281-21.536C557.28,297.378,559.011,295.2,560.341,294.965Z" transform="translate(-552.985 -279.528)"/></g><g transform="translate(18.666 0)"><path class="q" d="M597.878,319.689s15.573-15.231,10.269-17.8-15.745,5.818-9.926-3.252,12.594-23.2,4.55-20.973-8.626,4.669-7.631-5.9c1.287-13.664-6.332-20.707-13.519-16.258s6.161,34.569,1.2,31.318-9.07-5.99-10.1-2.054,14.209,19.39,8.558,16.77c-7.017-3.251-8.044,2.567-5.819,6.161S586.925,332.7,597.878,319.689Z" transform="translate(-572.671 -254.184)"/><path class="r" d="M591.379,307.711c-2.225-3.594-1.2-9.412,5.819-6.161,5.651,2.62-9.584-12.835-8.558-16.77s5.135-1.2,10.1,2.054-8.386-26.869-1.2-31.318a7.335,7.335,0,0,1,9.358.786c-3.72.91-6.7,3.9-4.634,11.984,4.375,17.12,7.038,31.387-.951,27.2-7.526-3.941,8.74,14.225,8.906,27.317C600.879,328.139,593.357,310.905,591.379,307.711Z" transform="translate(-588.591 -254.185)"/></g><g transform="translate(17.836 64.509)"><path class="h" d="M610.1,325.662l-3.013,27.289a6.733,6.733,0,0,1-6.692,5.993H583a6.732,6.732,0,0,1-6.692-5.993l-3.013-27.289a2.507,2.507,0,0,1,2.492-2.782h31.821A2.507,2.507,0,0,1,610.1,325.662Z" transform="translate(-573.279 -322.88)"/><path class="c" d="M592.914,322.88h11.033a2.507,2.507,0,0,0-2.492,2.782l3.013,27.289a6.733,6.733,0,0,0,6.692,5.993H600.127a6.732,6.732,0,0,1-6.692-5.993l-3.013-27.289A2.507,2.507,0,0,1,592.914,322.88Z" transform="translate(-590.406 -322.88)"/></g></g><g transform="translate(47.844 141.902)"><g transform="translate(2.917)"><rect class="s" width="194.095" height="8.81" rx="4.037"/><path class="q" d="M374.946,258.456H561.459a3.791,3.791,0,0,1,3.791,3.791v1.228a3.747,3.747,0,0,1-.2,1.148,3.777,3.777,0,0,0-3.595-2.643H374.946a3.778,3.778,0,0,0-3.595,2.643,3.751,3.751,0,0,1-.2-1.148v-1.228A3.79,3.79,0,0,1,374.946,258.456Z" transform="translate(-371.156 -258.456)"/></g><g transform="translate(0 8.854)"><g transform="translate(134.27)"><g transform="translate(0)"><path class="q" d="M385.149,355.724h6.234l43.368-87.839h-6.234Z" transform="translate(-385.149 -267.885)"/></g></g><g transform="translate(153.3)"><path class="q" d="M414.485,355.724h-6.234l-43.368-87.839h6.234Z" transform="translate(-364.883 -267.885)"/></g><path class="q" d="M528.134,355.724h6.234l43.368-87.839H571.5Z" transform="translate(-528.134 -267.885)"/><g transform="translate(19.03)"><path class="q" d="M557.47,355.724h-6.234l-43.368-87.839H514.1Z" transform="translate(-507.869 -267.885)"/></g><g transform="translate(175.92)"><g transform="translate(0)"><path class="t" d="M385.149,271.365l1.718-3.48H393.1l-1.718,3.48Z" transform="translate(-385.149 -267.885)"/></g></g><g transform="translate(153.3)"><g transform="translate(0)"><path class="t" d="M410.955,271.365l-1.718-3.48h6.234l1.718,3.48Z" transform="translate(-409.237 -267.885)"/></g></g><g transform="translate(41.65)"><path class="t" d="M528.134,271.365l1.718-3.48h6.234l-1.718,3.48Z" transform="translate(-528.134 -267.885)"/></g><g transform="translate(19.03)"><path class="t" d="M553.94,271.365l-1.718-3.48h6.234l1.718,3.48Z" transform="translate(-552.222 -267.885)"/></g></g></g></svg>