<svg xmlns="http://www.w3.org/2000/svg" width="15.001" height="15.029" viewBox="0 0 15.001 15.029"><defs><style>.a{fill:none;stroke:#fff;stroke-linecap:round;stroke-linejoin:round;}</style></defs><path class="a" d="M17.167,13.5v2.112a1.408,1.408,0,0,1-1.535,1.408,13.93,13.93,0,0,1-6.075-2.161,13.726,13.726,0,0,1-4.223-4.223,13.931,13.931,0,0,1-2.161-6.1A1.408,1.408,0,0,1,4.574,3H6.686A1.408,1.408,0,0,1,8.094,4.211a9.038,9.038,0,0,0,.493,1.978A1.408,1.408,0,0,1,8.27,7.674l-.894.894A11.263,11.263,0,0,0,11.6,12.791l.894-.894a1.408,1.408,0,0,1,1.485-.317,9.038,9.038,0,0,0,1.978.493A1.408,1.408,0,0,1,17.167,13.5Z" transform="translate(-2.667 -2.5)"/></svg>