<svg xmlns="http://www.w3.org/2000/svg" width="15.939" height="26.4" viewBox="0 0 15.939 26.4"><defs><style>.a{fill:#2d3850;}</style></defs><path class="a" d="M53.559,26.139c0-4.9-3.575-8.887-7.969-8.887s-7.969,3.987-7.969,8.887c0,4.45,2.948,8.146,6.78,8.788l-.784.974a1.027,1.027,0,0,0,.8,1.671h.656a3.3,3.3,0,0,1-.226.869,4.7,4.7,0,0,0,0,3.374,3.251,3.251,0,0,1,.251,1.342.494.494,0,1,0,.987,0,4.229,4.229,0,0,0-.313-1.687,3.714,3.714,0,0,1,0-2.685,4.2,4.2,0,0,0,.292-1.213h.7a1.026,1.026,0,0,0,.8-1.67l-.785-.976C50.611,34.285,53.559,30.589,53.559,26.139ZM46.8,36.564a.033.033,0,0,1-.035.022H44.415a.039.039,0,0,1-.03-.064l1.174-1.459a.083.083,0,0,1,.061,0l1.174,1.459A.033.033,0,0,1,46.8,36.564Zm-1.21-2.523c-3.85,0-6.982-3.544-6.982-7.9s3.132-7.9,6.982-7.9,6.982,3.544,6.982,7.9-3.132,7.9-6.982,7.9Z" transform="translate(-37.62 -17.252)"/><path class="a" d="M50.069,27.359a6.131,6.131,0,0,0-3.561,4.055.494.494,0,1,0,.948.275,5.141,5.141,0,0,1,2.97-3.41.494.494,0,0,0-.357-.921Z" transform="translate(-43.986 -24.483)"/></svg>