<svg xmlns="http://www.w3.org/2000/svg" width="26.391" height="26.4" viewBox="0 0 26.391 26.4"><defs><style>.a{fill:#28344c;}</style></defs><g transform="translate(0 6.238)"><g transform="translate(0)"><path class="a" d="M18.078,123.786a.44.44,0,1,0-.828.3l.006.017c.4,1.047.43,1.847.079,2.2-.426.425-1.486.292-2.837-.355a18.813,18.813,0,0,1-4.868-3.633c-3.445-3.446-4.867-6.827-3.987-7.706a1.2,1.2,0,0,1,.995-.232.44.44,0,0,0,.085-.875,2.026,2.026,0,0,0-1.7.484c-1.612,1.611.852,5.814,3.987,8.95a19.671,19.671,0,0,0,5.111,3.8,8.672,8.672,0,0,0,1.061.424l-3.125,1.185a12.449,12.449,0,0,1-7.873-9.7.44.44,0,0,0-.869.136A13.316,13.316,0,0,0,10.867,128.8l-5.143,1.946a.432.432,0,0,0-.088-.1,6.128,6.128,0,0,1-2.27-4.259l-.2-2.471a.435.435,0,0,0-.463-.4H2.686a.44.44,0,0,0-.4.473v0l.208,2.47a7.006,7.006,0,0,0,2.327,4.634l-3.669,1.389.66-2.708a.44.44,0,0,0-.855-.208l-.858,3.519a.44.44,0,0,0,.583.516l16.274-6.158a.411.411,0,0,0,.073-.046,1.709,1.709,0,0,0,.934-.466C18.394,126.486,18.769,125.588,18.078,123.786Z" transform="translate(-0.082 -113.468)"/></g></g><g transform="translate(12.767 14.502)"><path class="a" d="M241.674,264.7a14.484,14.484,0,0,0-7.452-.723l-1.572.264a.44.44,0,0,0,.145.867l1.571-.262a13.594,13.594,0,0,1,7,.68.453.453,0,0,0,.154.026.44.44,0,0,0,.154-.852Z" transform="translate(-232.294 -263.781)"/></g><g transform="translate(13.637 8.357)"><path class="a" d="M258.2,152.248a.44.44,0,0,0-.586-.208l-9.236,4.4a.44.44,0,0,0-.208.586h0a.44.44,0,0,0,.586.208h0l9.236-4.4A.44.44,0,0,0,258.2,152.248Z" transform="translate(-248.126 -151.997)"/></g><g transform="translate(8.494 2.633)"><path class="a" d="M156.764,48.24a.44.44,0,1,0-.862.175l0,.016a12.3,12.3,0,0,1-.657,7.437l-.64,1.535a.44.44,0,0,0,.236.574.434.434,0,0,0,.169.034.44.44,0,0,0,.406-.27l.64-1.533A13.177,13.177,0,0,0,156.764,48.24Z" transform="translate(-154.576 -47.887)"/></g><g transform="translate(22.872 15.834)"><path class="a" d="M417.425,288a1.319,1.319,0,1,0,1.319,1.319A1.32,1.32,0,0,0,417.425,288Zm0,1.759a.44.44,0,1,1,.44-.44A.44.44,0,0,1,417.425,289.759Z" transform="translate(-416.105 -288)"/></g><g transform="translate(12.316 3.519)"><path class="a" d="M225.424,64a1.319,1.319,0,1,0,1.319,1.32A1.319,1.319,0,0,0,225.424,64Zm0,1.759a.44.44,0,1,1,.44-.44A.44.44,0,0,1,225.424,65.759Z" transform="translate(-224.105 -64)"/></g><g transform="translate(8.798)"><circle class="a" cx="0.88" cy="0.88" r="0.88"/></g><g transform="translate(21.553 2.199)"><path class="a" d="M392.545,40a.44.44,0,0,0-.44.44v.44a.44.44,0,1,0,.88,0v-.44A.44.44,0,0,0,392.545,40Z" transform="translate(-392.105 -40)"/></g><g transform="translate(21.553)"><path class="a" d="M392.545,0a.44.44,0,0,0-.44.44V.88a.44.44,0,1,0,.88,0V.44A.44.44,0,0,0,392.545,0Z" transform="translate(-392.105 0)"/></g><g transform="translate(22.433 1.319)"><path class="a" d="M408.985,24h-.44a.44.44,0,1,0,0,.88h.44a.44.44,0,1,0,0-.88Z" transform="translate(-408.105 -24)"/></g><g transform="translate(20.233 1.319)"><path class="a" d="M368.985,24h-.44a.44.44,0,1,0,0,.88h.44a.44.44,0,0,0,0-.88Z" transform="translate(-368.105 -24)"/></g><g transform="translate(16.266 4.829)"><path class="a" d="M298.585,87.832h-2.208a.44.44,0,0,0-.44.44V90.48a.44.44,0,0,0,.44.44h2.208a.44.44,0,0,0,.44-.44V88.272A.44.44,0,0,0,298.585,87.832Zm-.44,2.208h-1.329V88.712h1.329Z" transform="translate(-295.937 -87.832)"/></g><g transform="translate(10.557 8.363)"><path class="a" d="M197.26,152.244a.44.44,0,0,0-.609-.032l-4.4,3.958a.44.44,0,1,0,.588.654l4.4-3.958A.44.44,0,0,0,197.26,152.244Z" transform="translate(-192.107 -152.105)"/></g><g transform="translate(23.312 10.116)"><path class="a" d="M424.545,184a.44.44,0,0,0-.44.44v.44a.44.44,0,1,0,.88,0v-.44A.44.44,0,0,0,424.545,184Z" transform="translate(-424.105 -184)"/></g><g transform="translate(24.562 9.606)"><path class="a" d="M447.892,175.156l-.311-.311a.44.44,0,0,0-.622.622l.311.311a.44.44,0,0,0,.622-.622Z" transform="translate(-446.836 -174.722)"/></g><g transform="translate(25.072 8.357)"><path class="a" d="M456.985,152h-.44a.44.44,0,1,0,0,.88h.44a.44.44,0,1,0,0-.88Z" transform="translate(-456.105 -152)"/></g><g transform="translate(24.557 6.807)"><path class="a" d="M447.789,123.942a.44.44,0,0,0-.611,0l-.311.311a.44.44,0,0,0,.311.751h0a.44.44,0,0,0,.311-.129l.311-.311A.44.44,0,0,0,447.789,123.942Z" transform="translate(-446.739 -123.818)"/></g><g transform="translate(23.312 6.158)"><path class="a" d="M424.545,112a.44.44,0,0,0-.44.44v.44a.44.44,0,0,0,.88,0v-.44A.44.44,0,0,0,424.545,112Z" transform="translate(-424.105 -112)"/></g><g transform="translate(21.762 6.807)"><path class="a" d="M396.972,124.253l-.311-.311a.44.44,0,0,0-.622.622l.311.311a.44.44,0,0,0,.622-.622Z" transform="translate(-395.916 -123.818)"/></g><g transform="translate(0.001 0.02)"><g transform="translate(0)"><path class="a" d="M5.352,2.243A.44.44,0,0,0,5,1.944L3.706,1.756,3.13.586a.458.458,0,0,0-.789,0l-.578,1.17L.472,1.944a.44.44,0,0,0-.245.75l.934.91L.941,4.89a.44.44,0,0,0,.639.465l1.155-.609,1.155.607a.44.44,0,0,0,.638-.464L4.307,3.6l.934-.91A.44.44,0,0,0,5.352,2.243Zm-1.826.893a.44.44,0,0,0-.127.389l.109.636-.57-.3a.44.44,0,0,0-.409,0l-.572.3.109-.636a.44.44,0,0,0-.124-.388l-.462-.45.638-.093a.44.44,0,0,0,.331-.241l.285-.577.285.577a.44.44,0,0,0,.331.241l.638.093Z" transform="translate(-0.095 -0.361)"/></g></g><g transform="translate(19.804 18.914)"><path class="a" d="M365.4,347.163h0l-.181-.272a6.637,6.637,0,0,0-4.416-2.856.44.44,0,0,0-.145.867,5.754,5.754,0,0,1,3.356,1.871,2.6,2.6,0,0,0-1.759,1.208,1.759,1.759,0,0,0,3.072,1.715,2.551,2.551,0,0,0,.285-1.129,2.149,2.149,0,0,1,.1,2.284.44.44,0,0,0,.757.449l.011-.02A3.07,3.07,0,0,0,365.4,347.163Zm-.842,2.105a.88.88,0,0,1-1.54-.85l0-.007a1.648,1.648,0,0,1,1.191-.775.448.448,0,0,1,.22.051C364.8,347.894,364.819,348.792,364.553,349.268Z" transform="translate(-360.294 -344.031)"/></g></svg>