<svg xmlns="http://www.w3.org/2000/svg" width="21.021" height="15.74" viewBox="0 0 21.021 15.74"><defs><style>.a{fill:none;stroke:#005d5a;stroke-linecap:round;stroke-linejoin:round;stroke-dasharray:0 0;}</style></defs><g transform="translate(0.5 0.5)"><path class="a" d="M3.27,6.54A3.27,3.27,0,1,1,6.54,3.27,3.27,3.27,0,0,1,3.27,6.54Z" transform="translate(9.908)"/><path class="a" d="M13.039,6.1a1.2,1.2,0,0,0,.55-1.522,7.27,7.27,0,0,0-13.51,0,1.21,1.21,0,0,0,1.13,1.64l11.26.02A1.2,1.2,0,0,0,13.039,6.1Z" transform="translate(6.34 8.498)"/><path class="a" d="M2.42,4.84A2.42,2.42,0,1,1,4.84,2.42,2.42,2.42,0,0,1,2.42,4.84Z" transform="translate(2.608 1.73)"/><path class="a" d="M6.748.272A5.36,5.36,0,0,0,.028,3.516a.79.79,0,0,0,.76,1h5.9a7.29,7.29,0,0,1,2.34-2.76h0A5.36,5.36,0,0,0,6.748.272Z" transform="translate(0 8.074)"/></g></svg>