<svg xmlns="http://www.w3.org/2000/svg" width="14" height="16" viewBox="0 0 14 16"><defs><style>.a{fill:#626679;}</style></defs><path class="a" d="M12.877,7.887,6.614,14.244A3.485,3.485,0,0,1,.983,13.217,3.535,3.535,0,0,1,.9,10.491,3.5,3.5,0,0,1,1.641,9.32L2.793,8.151l6.18-6.269.508-.515a2.205,2.205,0,0,1,3.072-.086A2.235,2.235,0,0,1,13.086,2a2.259,2.259,0,0,1-.407,2.515l-6.74,6.83-.86.872A.947.947,0,0,1,3.566,12a.966.966,0,0,1,.149-1.122l7.1-7.2a.351.351,0,0,0,.076-.114.355.355,0,0,0,0-.271.351.351,0,0,0-.076-.114h0a.347.347,0,0,0-.113-.077.343.343,0,0,0-.267,0,.347.347,0,0,0-.113.077L3.263,10.339a1.708,1.708,0,0,0-.1,2.294,1.639,1.639,0,0,0,.525.414,1.62,1.62,0,0,0,1.861-.3l.891-.9,6.724-6.823.194-.2a2.98,2.98,0,0,0-.283-4,2.909,2.909,0,0,0-4.1.043l-.5.511L2.294,7.648l-1.085,1.1a4.273,4.273,0,0,0-.9,1.394,4.323,4.323,0,0,0,.029,3.27,4.27,4.27,0,0,0,.927,1.377,4.094,4.094,0,0,0,5.793.02L13.374,8.4a.353.353,0,0,0,.076-.115.357.357,0,0,0,0-.27.353.353,0,0,0-.076-.115h0a.348.348,0,0,0-.112-.08.343.343,0,0,0-.27,0,.347.347,0,0,0-.115.076Z"/></svg>